kMon50V8.ufo
<glyph name="three" format="2">
  <advance width="1078"/>
  <unicode hex="0033"/>
  <outline>
    <contour>
      <point x="333" y="711" type="line"/>
      <point x="628" y="711"/>
      <point x="767" y="561"/>
      <point x="767" y="363" type="curve" smooth="yes"/>
      <point x="767" y="206"/>
      <point x="666" y="64"/>
      <point x="487" y="64" type="curve" smooth="yes"/>
      <point x="356" y="64"/>
      <point x="352" y="164"/>
      <point x="210" y="164" type="curve" smooth="yes"/>
      <point x="168" y="164"/>
      <point x="104" y="146"/>
      <point x="104" y="86" type="curve" smooth="yes"/>
      <point x="104" y="15"/>
      <point x="191" y="-33"/>
      <point x="333" y="-33" type="curve" smooth="yes"/>
      <point x="670" y="-33"/>
      <point x="928" y="135"/>
      <point x="928" y="472" type="curve" smooth="yes"/>
      <point x="928" y="632"/>
      <point x="809" y="805"/>
      <point x="659" y="853" type="curve"/>
      <point x="767" y="940"/>
      <point x="857" y="1078"/>
      <point x="857" y="1168" type="curve" smooth="yes"/>
      <point x="857" y="1340"/>
      <point x="700" y="1471"/>
      <point x="513" y="1471" type="curve" smooth="yes"/>
      <point x="310" y="1471"/>
      <point x="179" y="1329"/>
      <point x="123" y="1156" type="curve"/>
      <point x="161" y="1138" type="line"/>
      <point x="214" y="1239"/>
      <point x="337" y="1318"/>
      <point x="434" y="1318" type="curve" smooth="yes"/>
      <point x="576" y="1318"/>
      <point x="670" y="1216"/>
      <point x="670" y="1089" type="curve" smooth="yes"/>
      <point x="670" y="902"/>
      <point x="532" y="771"/>
      <point x="333" y="749" type="curve"/>
    </contour>
  </outline>
</glyph>
<glyph name="K" format="2">
  <advance width="1591"/>
  <unicode hex="004B"/>
  <outline>
    <contour>
      <point x="247" y="229" type="line" smooth="yes"/>
      <point x="247" y="75"/>
      <point x="191" y="37"/>
      <point x="41" y="37" type="curve"/>
      <point x="41" y="0" type="line"/>
      <point x="666" y="0" type="line"/>
      <point x="666" y="37" type="line"/>
      <point x="520" y="37"/>
      <point x="464" y="75"/>
      <point x="464" y="229" type="curve" smooth="yes"/>
      <point x="464" y="730" type="line"/>
      <point x="958" y="232" type="line" smooth="yes"/>
      <point x="1011" y="179"/>
      <point x="1040" y="135"/>
      <point x="1040" y="112" type="curve" smooth="yes"/>
      <point x="1040" y="75"/>
      <point x="1018" y="37"/>
      <point x="940" y="37" type="curve"/>
      <point x="940" y="0" type="line"/>
      <point x="1609" y="0" type="line"/>
      <point x="1609" y="37" type="line"/>
      <point x="1460" y="37"/>
      <point x="1422" y="56"/>
      <point x="1227" y="251" type="curve" smooth="yes"/>
      <point x="644" y="831" type="line"/>
      <point x="1071" y="1231" type="line" smooth="yes"/>
      <point x="1203" y="1354"/>
      <point x="1287" y="1396"/>
      <point x="1418" y="1396" type="curve"/>
      <point x="1418" y="1437" type="line"/>
      <point x="887" y="1437" type="line"/>
      <point x="887" y="1400" type="line"/>
      <point x="1000" y="1400"/>
      <point x="1021" y="1370"/>
      <point x="1021" y="1347" type="curve" smooth="yes"/>
      <point x="1021" y="1306"/>
      <point x="958" y="1250"/>
      <point x="925" y="1216" type="curve"/>
      <point x="464" y="801" type="line"/>
      <point x="464" y="1209" type="line" smooth="yes"/>
      <point x="464" y="1362"/>
      <point x="520" y="1400"/>
      <point x="666" y="1400" type="curve"/>
      <point x="666" y="1437" type="line"/>
      <point x="41" y="1437" type="line"/>
      <point x="41" y="1400" type="line"/>
      <point x="191" y="1400"/>
      <point x="247" y="1362"/>
      <point x="247" y="1209" type="curve" smooth="yes"/>
    </contour>
  </outline>
</glyph>
<glyph name="c" format="2">
  <advance width="950"/>
  <unicode hex="0063"/>
  <outline>
    <contour>
      <point x="483" y="-23" type="curve" smooth="yes"/>
      <point x="688" y="-23"/>
      <point x="831" y="123"/>
      <point x="890" y="366" type="curve"/>
      <point x="850" y="382" type="line"/>
      <point x="794" y="243"/>
      <point x="715" y="127"/>
      <point x="551" y="127" type="curve" smooth="yes"/>
      <point x="366" y="127"/>
      <point x="243" y="337"/>
      <point x="243" y="584" type="curve" smooth="yes"/>
      <point x="243" y="771"/>
      <point x="337" y="921"/>
      <point x="497" y="921" type="curve" smooth="yes"/>
      <point x="618" y="921"/>
      <point x="647" y="853"/>
      <point x="647" y="759" type="curve" smooth="yes"/>
      <point x="647" y="707"/>
      <point x="688" y="651"/>
      <point x="749" y="651" type="curve" smooth="yes"/>
      <point x="809" y="651"/>
      <point x="869" y="700"/>
      <point x="869" y="759" type="curve" smooth="yes"/>
      <point x="869" y="890"/>
      <point x="726" y="992"/>
      <point x="528" y="992" type="curve" smooth="yes"/>
      <point x="273" y="992"/>
      <point x="67" y="756"/>
      <point x="67" y="460" type="curve" smooth="yes"/>
      <point x="67" y="195"/>
      <point x="254" y="-23"/>
    </contour>
  </outline>
</glyph>
<glyph name="twosuperior" format="2">
  <advance width="753"/>
  <unicode hex="00B2"/>
  <outline>
    <contour>
      <point x="64" y="707" type="line"/>
      <point x="603" y="707" type="line"/>
      <point x="666" y="869" type="line"/>
      <point x="614" y="869" type="line"/>
      <point x="591" y="816"/>
      <point x="535" y="805"/>
      <point x="472" y="805" type="curve" smooth="yes"/>
      <point x="239" y="805" type="line"/>
      <point x="366" y="909"/>
      <point x="618" y="1085"/>
      <point x="618" y="1258" type="curve" smooth="yes"/>
      <point x="618" y="1389"/>
      <point x="520" y="1471"/>
      <point x="356" y="1471" type="curve" smooth="yes"/>
      <point x="232" y="1471"/>
      <point x="120" y="1370"/>
      <point x="101" y="1250" type="curve"/>
      <point x="150" y="1250" type="line"/>
      <point x="176" y="1329"/>
      <point x="235" y="1370"/>
      <point x="318" y="1370" type="curve" smooth="yes"/>
      <point x="412" y="1370"/>
      <point x="483" y="1310"/>
      <point x="483" y="1220" type="curve" smooth="yes"/>
      <point x="483" y="1048"/>
      <point x="202" y="846"/>
      <point x="64" y="745" type="curve"/>
    </contour>
  </outline>
</glyph>
<glyph name="mu" format="2">
  <advance width="1091"/>
  <unicode hex="00B5"/>
  <unicode hex="03BC"/>
  <outline>
    <contour>
      <point x="99" y="969" type="line"/>
      <point x="99" y="155" type="line"/>
      <point x="99" y="-122"/>
      <point x="40" y="-188"/>
      <point x="40" y="-306" type="curve" smooth="yes"/>
      <point x="40" y="-361"/>
      <point x="66" y="-427"/>
      <point x="133" y="-427" type="curve" smooth="yes"/>
      <point x="195" y="-427"/>
      <point x="222" y="-364"/>
      <point x="222" y="-309" type="curve" smooth="yes"/>
      <point x="222" y="-211"/>
      <point x="176" y="-118"/>
      <point x="176" y="66" type="curve"/>
      <point x="180" y="66" type="line"/>
      <point x="222" y="11"/>
      <point x="269" y="-18"/>
      <point x="347" y="-18" type="curve" smooth="yes"/>
      <point x="490" y="-18"/>
      <point x="605" y="81"/>
      <point x="689" y="180" type="curve"/>
      <point x="696" y="78"/>
      <point x="738" y="-18"/>
      <point x="863" y="-18" type="curve" smooth="yes"/>
      <point x="1006" y="-18"/>
      <point x="1080" y="100"/>
      <point x="1080" y="226" type="curve"/>
      <point x="1032" y="226" type="line"/>
      <point x="1028" y="180"/>
      <point x="1003" y="93"/>
      <point x="944" y="93" type="curve" smooth="yes"/>
      <point x="884" y="93"/>
      <point x="863" y="218"/>
      <point x="863" y="269" type="curve" smooth="yes"/>
      <point x="863" y="969" type="line"/>
      <point x="689" y="969" type="line"/>
      <point x="689" y="250" type="line"/>
      <point x="630" y="180"/>
      <point x="535" y="112"/>
      <point x="434" y="112" type="curve" smooth="yes"/>
      <point x="324" y="112"/>
      <point x="273" y="214"/>
      <point x="273" y="387" type="curve" smooth="yes"/>
      <point x="273" y="969" type="line"/>
    </contour>
  </outline>
</glyph>
<glyph name="Iacute" format="2">
  <advance width="722"/>
  <unicode hex="00CD"/>
  <outline>
    <contour>
      <point x="251" y="229" type="line" smooth="yes"/>
      <point x="251" y="75"/>
      <point x="198" y="37"/>
      <point x="48" y="37" type="curve"/>
      <point x="48" y="0" type="line"/>
      <point x="674" y="0" type="line"/>
      <point x="674" y="37" type="line"/>
      <point x="528" y="37"/>
      <point x="472" y="75"/>
      <point x="472" y="229" type="curve" smooth="yes"/>
      <point x="472" y="1209" type="line" smooth="yes"/>
      <point x="472" y="1362"/>
      <point x="528" y="1400"/>
      <point x="674" y="1400" type="curve"/>
      <point x="674" y="1437" type="line"/>
      <point x="48" y="1437" type="line"/>
      <point x="48" y="1400" type="line"/>
      <point x="198" y="1400"/>
      <point x="251" y="1362"/>
      <point x="251" y="1209" type="curve" smooth="yes"/>
    </contour>
    <contour>
      <point x="638" y="1857" type="line"/>
      <point x="372" y="1857" type="line"/>
      <point x="185" y="1558" type="line"/>
      <point x="241" y="1558" type="line"/>
    </contour>
  </outline>
</glyph>
<glyph name="Idieresis" format="2">
  <advance width="722"/>
  <unicode hex="00CF"/>
  <outline>
    <contour>
      <point x="251" y="229" type="line" smooth="yes"/>
      <point x="251" y="75"/>
      <point x="198" y="37"/>
      <point x="48" y="37" type="curve"/>
      <point x="48" y="0" type="line"/>
      <point x="674" y="0" type="line"/>
      <point x="674" y="37" type="line"/>
      <point x="528" y="37"/>
      <point x="472" y="75"/>
      <point x="472" y="229" type="curve" smooth="yes"/>
      <point x="472" y="1209" type="line" smooth="yes"/>
      <point x="472" y="1362"/>
      <point x="528" y="1400"/>
      <point x="674" y="1400" type="curve"/>
      <point x="674" y="1437" type="line"/>
      <point x="48" y="1437" type="line"/>
      <point x="48" y="1400" type="line"/>
      <point x="198" y="1400"/>
      <point x="251" y="1362"/>
      <point x="251" y="1209" type="curve" smooth="yes"/>
    </contour>
    <contour>
      <point x="56" y="1711" type="curve" smooth="yes"/>
      <point x="56" y="1655"/>
      <point x="104" y="1605"/>
      <point x="161" y="1605" type="curve" smooth="yes"/>
      <point x="217" y="1605"/>
      <point x="266" y="1655"/>
      <point x="266" y="1711" type="curve" smooth="yes"/>
      <point x="266" y="1767"/>
      <point x="217" y="1815"/>
      <point x="161" y="1815" type="curve" smooth="yes"/>
      <point x="104" y="1815"/>
      <point x="56" y="1767"/>
    </contour>
    <contour>
      <point x="468" y="1711" type="curve" smooth="yes"/>
      <point x="468" y="1655"/>
      <point x="516" y="1605"/>
      <point x="572" y="1605" type="curve" smooth="yes"/>
      <point x="628" y="1605"/>
      <point x="678" y="1655"/>
      <point x="678" y="1711" type="curve" smooth="yes"/>
      <point x="678" y="1767"/>
      <point x="628" y="1815"/>
      <point x="572" y="1815" type="curve" smooth="yes"/>
      <point x="516" y="1815"/>
      <point x="468" y="1767"/>
    </contour>
  </outline>
</glyph>
<glyph name="iacute" format="2">
  <advance width="588"/>
  <unicode hex="00ED"/>
  <outline>
    <contour>
      <point x="217" y="225" type="line"/>
      <point x="217" y="90"/>
      <point x="195" y="37"/>
      <point x="67" y="37" type="curve"/>
      <point x="67" y="0" type="line"/>
      <point x="547" y="0" type="line"/>
      <point x="547" y="37" type="line"/>
      <point x="420" y="37"/>
      <point x="393" y="90"/>
      <point x="393" y="225" type="curve" smooth="yes"/>
      <point x="393" y="992" type="line"/>
      <point x="341" y="992" type="line"/>
      <point x="52" y="861" type="line"/>
      <point x="67" y="823" type="line"/>
      <point x="104" y="834"/>
      <point x="135" y="842"/>
      <point x="154" y="842" type="curve" smooth="yes"/>
      <point x="217" y="842"/>
      <point x="217" y="794"/>
      <point x="217" y="682" type="curve" smooth="yes"/>
    </contour>
    <contour>
      <point x="588" y="1471" type="line"/>
      <point x="322" y="1471" type="line"/>
      <point x="210" y="1096" type="line"/>
      <point x="266" y="1096" type="line"/>
    </contour>
  </outline>
</glyph>
<glyph name="uni012D" format="2">
  <advance width="589"/>
  <unicode hex="012D"/>
  <outline>
    <contour>
      <point x="217" y="225" type="line"/>
      <point x="217" y="90"/>
      <point x="195" y="37"/>
      <point x="67" y="37" type="curve"/>
      <point x="67" y="0" type="line"/>
      <point x="547" y="0" type="line"/>
      <point x="547" y="37" type="line"/>
      <point x="420" y="37"/>
      <point x="394" y="90"/>
      <point x="394" y="225" type="curve" smooth="yes"/>
      <point x="394" y="994" type="line"/>
      <point x="341" y="994" type="line"/>
      <point x="52" y="862" type="line"/>
      <point x="67" y="825" type="line"/>
      <point x="105" y="836"/>
      <point x="135" y="844"/>
      <point x="154" y="844" type="curve" smooth="yes"/>
      <point x="217" y="844"/>
      <point x="217" y="795"/>
      <point x="217" y="682" type="curve" smooth="yes"/>
    </contour>
    <contour>
      <point x="574" y="1478" type="line"/>
      <point x="552" y="1422"/>
      <point x="447" y="1287"/>
      <point x="297" y="1287" type="curve" smooth="yes"/>
      <point x="148" y="1287"/>
      <point x="42" y="1422"/>
      <point x="20" y="1478" type="curve"/>
      <point x="-18" y="1478" type="line"/>
      <point x="1" y="1384"/>
      <point x="92" y="1160"/>
      <point x="297" y="1160" type="curve" smooth="yes"/>
      <point x="503" y="1160"/>
      <point x="589" y="1384"/>
      <point x="608" y="1478" type="curve"/>
    </contour>
  </outline>
</glyph>
<glyph name="Ydieresis" format="2">
  <advance width="1468"/>
  <unicode hex="0178"/>
  <outline>
    <contour>
      <point x="468" y="1711" type="curve" smooth="yes"/>
      <point x="468" y="1655"/>
      <point x="516" y="1605"/>
      <point x="572" y="1605" type="curve" smooth="yes"/>
      <point x="628" y="1605"/>
      <point x="678" y="1655"/>
      <point x="678" y="1711" type="curve" smooth="yes"/>
      <point x="678" y="1767"/>
      <point x="628" y="1815"/>
      <point x="572" y="1815" type="curve" smooth="yes"/>
      <point x="516" y="1815"/>
      <point x="468" y="1767"/>
    </contour>
    <contour>
      <point x="880" y="1711" type="curve" smooth="yes"/>
      <point x="880" y="1655"/>
      <point x="928" y="1605"/>
      <point x="984" y="1605" type="curve" smooth="yes"/>
      <point x="1040" y="1605"/>
      <point x="1089" y="1655"/>
      <point x="1089" y="1711" type="curve" smooth="yes"/>
      <point x="1089" y="1767"/>
      <point x="1040" y="1815"/>
      <point x="984" y="1815" type="curve" smooth="yes"/>
      <point x="928" y="1815"/>
      <point x="880" y="1767"/>
    </contour>
    <contour>
      <point x="-33" y="1437" type="line"/>
      <point x="-33" y="1400" type="line"/>
      <point x="75" y="1400"/>
      <point x="120" y="1329"/>
      <point x="183" y="1235" type="curve" smooth="yes"/>
      <point x="607" y="599" type="line"/>
      <point x="607" y="229" type="line" smooth="yes"/>
      <point x="607" y="75"/>
      <point x="551" y="37"/>
      <point x="404" y="37" type="curve"/>
      <point x="404" y="0" type="line"/>
      <point x="1029" y="0" type="line"/>
      <point x="1029" y="37" type="line"/>
      <point x="880" y="37"/>
      <point x="827" y="75"/>
      <point x="827" y="229" type="curve" smooth="yes"/>
      <point x="827" y="622" type="line"/>
      <point x="1202" y="1220" type="line" smooth="yes"/>
      <point x="1282" y="1347"/>
      <point x="1343" y="1400"/>
      <point x="1468" y="1400" type="curve"/>
      <point x="1468" y="1437" type="line"/>
      <point x="965" y="1437" type="line"/>
      <point x="965" y="1400" type="line"/>
      <point x="1067" y="1400"/>
      <point x="1115" y="1362"/>
      <point x="1115" y="1295" type="curve" smooth="yes"/>
      <point x="1115" y="1276"/>
      <point x="1108" y="1250"/>
      <point x="1093" y="1220" type="curve"/>
      <point x="771" y="700" type="line"/>
      <point x="460" y="1202" type="line"/>
      <point x="430" y="1243"/>
      <point x="420" y="1273"/>
      <point x="420" y="1299" type="curve" smooth="yes"/>
      <point x="420" y="1362"/>
      <point x="472" y="1400"/>
      <point x="591" y="1400" type="curve"/>
      <point x="591" y="1437" type="line"/>
    </contour>
  </outline>
</glyph>
<glyph name="uni0180" format="2">
  <advance width="1071"/>
  <unicode hex="0180"/>
  <outline>
    <contour>
      <point x="-49" y="1226" type="line"/>
      <point x="-49" y="1072" type="line"/>
      <point x="158" y="1072" type="line"/>
      <point x="158" y="94" type="line"/>
      <point x="247" y="19"/>
      <point x="366" y="-23"/>
      <point x="497" y="-23" type="curve" smooth="yes"/>
      <point x="771" y="-23"/>
      <point x="988" y="239"/>
      <point x="988" y="557" type="curve" smooth="yes"/>
      <point x="988" y="797"/>
      <point x="842" y="992"/>
      <point x="636" y="992" type="curve" smooth="yes"/>
      <point x="528" y="992"/>
      <point x="389" y="902"/>
      <point x="333" y="790" type="curve"/>
      <point x="333" y="1072" type="line"/>
      <point x="604" y="1072" type="line"/>
      <point x="604" y="1226" type="line"/>
      <point x="333" y="1226" type="line"/>
      <point x="333" y="1471" type="line"/>
      <point x="281" y="1471" type="line"/>
      <point x="-8" y="1343" type="line"/>
      <point x="8" y="1302" type="line"/>
      <point x="45" y="1314"/>
      <point x="71" y="1321"/>
      <point x="94" y="1321" type="curve" smooth="yes"/>
      <point x="144" y="1321"/>
      <point x="155" y="1291"/>
      <point x="157" y="1226" type="curve"/>
    </contour>
    <contour>
      <point x="333" y="726" type="line"/>
      <point x="374" y="790"/>
      <point x="468" y="842"/>
      <point x="547" y="842" type="curve" smooth="yes"/>
      <point x="688" y="842"/>
      <point x="805" y="688"/>
      <point x="805" y="497" type="curve" smooth="yes"/>
      <point x="805" y="243"/>
      <point x="696" y="60"/>
      <point x="532" y="60" type="curve" smooth="yes"/>
      <point x="434" y="60"/>
      <point x="378" y="112"/>
      <point x="333" y="158" type="curve"/>
    </contour>
  </outline>
</glyph>
<glyph name="uni01C0" format="2">
  <advance width="636"/>
  <unicode hex="01C0"/>
  <outline>
    <contour>
      <point x="225" y="0" type="line"/>
      <point x="412" y="0" type="line"/>
      <point x="412" y="1583" type="line"/>
      <point x="225" y="1583" type="line"/>
    </contour>
  </outline>
</glyph>
<glyph name="uni0257" format="2">
  <advance width="1127"/>
  <unicode hex="0257"/>
  <outline>
    <contour>
      <point x="734" y="1033" type="line"/>
      <point x="734" y="902" type="line"/>
      <point x="682" y="954"/>
      <point x="618" y="992"/>
      <point x="532" y="992" type="curve" smooth="yes"/>
      <point x="277" y="992"/>
      <point x="67" y="738"/>
      <point x="67" y="472" type="curve" smooth="yes"/>
      <point x="67" y="206"/>
      <point x="235" y="-23"/>
      <point x="441" y="-23" type="curve" smooth="yes"/>
      <point x="543" y="-23"/>
      <point x="651" y="23"/>
      <point x="734" y="94" type="curve"/>
      <point x="734" y="-23" type="line"/>
      <point x="786" y="-23" type="line"/>
      <point x="1081" y="112" type="line"/>
      <point x="1067" y="142" type="line"/>
      <point x="1044" y="127"/>
      <point x="1018" y="123"/>
      <point x="1000" y="123" type="curve" smooth="yes"/>
      <point x="928" y="123"/>
      <point x="909" y="161"/>
      <point x="909" y="289" type="curve" smooth="yes"/>
      <point x="909" y="1216" type="line"/>
      <point x="909" y="1318"/>
      <point x="981" y="1400"/>
      <point x="1056" y="1400" type="curve" smooth="yes"/>
      <point x="1198" y="1400"/>
      <point x="1156" y="1216"/>
      <point x="1287" y="1216" type="curve" smooth="yes"/>
      <point x="1337" y="1216"/>
      <point x="1374" y="1243"/>
      <point x="1374" y="1299" type="curve" smooth="yes"/>
      <point x="1374" y="1418"/>
      <point x="1239" y="1471"/>
      <point x="1063" y="1471" type="curve" smooth="yes"/>
      <point x="880" y="1471"/>
      <point x="734" y="1314"/>
      <point x="734" y="1115" type="curve" smooth="yes"/>
    </contour>
    <contour>
      <point x="734" y="183" type="line"/>
      <point x="688" y="131"/>
      <point x="614" y="86"/>
      <point x="543" y="86" type="curve" smooth="yes"/>
      <point x="385" y="86"/>
      <point x="262" y="285"/>
      <point x="262" y="528" type="curve" smooth="yes"/>
      <point x="262" y="759"/>
      <point x="374" y="921"/>
      <point x="513" y="921" type="curve" smooth="yes"/>
      <point x="622" y="921"/>
      <point x="734" y="816"/>
      <point x="734" y="663" type="curve" smooth="yes"/>
    </contour>
  </outline>
</glyph>
<glyph name="uni0264" format="2">
  <advance width="964"/>
  <unicode hex="0264"/>
  <outline>
    <contour>
      <point x="227" y="992" type="curve"/>
      <point x="125" y="990"/>
      <point x="32" y="969"/>
      <point x="0" y="782" type="curve"/>
      <point x="41" y="842"/>
      <point x="92" y="876"/>
      <point x="159" y="876" type="curve" smooth="yes"/>
      <point x="212" y="876"/>
      <point x="249" y="863"/>
      <point x="273" y="813" type="curve"/>
      <point x="434" y="485" type="line"/>
      <point x="399" y="412"/>
      <point x="345" y="292"/>
      <point x="345" y="227" type="curve" smooth="yes"/>
      <point x="345" y="88"/>
      <point x="428" y="0"/>
      <point x="537" y="0" type="curve" smooth="yes"/>
      <point x="655" y="0"/>
      <point x="722" y="101"/>
      <point x="722" y="208" type="curve" smooth="yes"/>
      <point x="722" y="289"/>
      <point x="636" y="472"/>
      <point x="580" y="584" type="curve"/>
      <point x="688" y="805" type="line" smooth="yes"/>
      <point x="709" y="848"/>
      <point x="756" y="876"/>
      <point x="823" y="876" type="curve" smooth="yes"/>
      <point x="872" y="876"/>
      <point x="923" y="842"/>
      <point x="964" y="782" type="curve"/>
      <point x="930" y="981"/>
      <point x="846" y="992"/>
      <point x="794" y="992" type="curve" smooth="yes"/>
      <point x="728" y="992"/>
      <point x="672" y="955"/>
      <point x="628" y="869" type="curve" smooth="yes"/>
      <point x="533" y="683" type="line"/>
      <point x="449" y="846" type="line" smooth="yes"/>
      <point x="410" y="921"/>
      <point x="354" y="992"/>
    </contour>
    <contour>
      <point x="481" y="391" type="curve"/>
      <point x="514" y="326"/>
      <point x="539" y="252"/>
      <point x="539" y="229" type="curve" smooth="yes"/>
      <point x="539" y="172"/>
      <point x="516" y="150"/>
      <point x="481" y="150" type="curve" smooth="yes"/>
      <point x="453" y="150"/>
      <point x="425" y="185"/>
      <point x="425" y="230" type="curve" smooth="yes"/>
      <point x="425" y="264"/>
      <point x="447" y="326"/>
    </contour>
  </outline>
  <guideline angle="63.3068" x="285" y="0"/>
  <guideline angle="63.3068" x="191" y="0"/>
  <guideline angle="116.225" x="869" y="0"/>
  <guideline angle="116.225" x="674" y="0"/>
</glyph>
<glyph name="uni026A" format="2">
  <advance width="722"/>
  <unicode hex="026A"/>
  <outline>
    <contour>
      <point x="251" y="229" type="line" smooth="yes"/>
      <point x="251" y="75"/>
      <point x="198" y="37"/>
      <point x="48" y="37" type="curve"/>
      <point x="48" y="0" type="line"/>
      <point x="674" y="0" type="line"/>
      <point x="674" y="37" type="line"/>
      <point x="528" y="37"/>
      <point x="472" y="75"/>
      <point x="472" y="229" type="curve" smooth="yes"/>
      <point x="472" y="740" type="line" smooth="yes"/>
      <point x="472" y="894"/>
      <point x="528" y="931"/>
      <point x="674" y="931" type="curve"/>
      <point x="674" y="969" type="line"/>
      <point x="48" y="969" type="line"/>
      <point x="48" y="931" type="line"/>
      <point x="198" y="931"/>
      <point x="251" y="894"/>
      <point x="251" y="740" type="curve" smooth="yes"/>
    </contour>
  </outline>
</glyph>
<glyph name="uni026E" format="2">
  <advance width="1160"/>
  <unicode hex="026E"/>
  <outline>
    <contour>
      <point x="1011" y="934" type="line"/>
      <point x="1011" y="971" type="line"/>
      <point x="382" y="971" type="line"/>
      <point x="382" y="1471" type="line"/>
      <point x="333" y="1471" type="line"/>
      <point x="41" y="1343" type="line"/>
      <point x="56" y="1302" type="line"/>
      <point x="94" y="1314"/>
      <point x="123" y="1321"/>
      <point x="142" y="1321" type="curve" smooth="yes"/>
      <point x="206" y="1321"/>
      <point x="206" y="1273"/>
      <point x="206" y="1164" type="curve" smooth="yes"/>
      <point x="206" y="225" type="line" smooth="yes"/>
      <point x="206" y="90"/>
      <point x="183" y="37"/>
      <point x="56" y="37" type="curve"/>
      <point x="56" y="0" type="line"/>
      <point x="535" y="0" type="line"/>
      <point x="535" y="37" type="line"/>
      <point x="408" y="37"/>
      <point x="382" y="90"/>
      <point x="382" y="225" type="curve" smooth="yes"/>
      <point x="382" y="825" type="line"/>
      <point x="819" y="825" type="line"/>
      <point x="459" y="389" type="line"/>
      <point x="472" y="374" type="line"/>
      <point x="524" y="406"/>
      <point x="574" y="416"/>
      <point x="622" y="416" type="curve" smooth="yes"/>
      <point x="805" y="416"/>
      <point x="928" y="243"/>
      <point x="928" y="-4" type="curve" smooth="yes"/>
      <point x="928" y="-229"/>
      <point x="778" y="-378"/>
      <point x="618" y="-378" type="curve" smooth="yes"/>
      <point x="460" y="-378"/>
      <point x="393" y="-292"/>
      <point x="393" y="-179" type="curve" smooth="yes"/>
      <point x="393" y="-129"/>
      <point x="352" y="-71"/>
      <point x="292" y="-71" type="curve" smooth="yes"/>
      <point x="232" y="-71"/>
      <point x="172" y="-120"/>
      <point x="172" y="-179" type="curve" smooth="yes"/>
      <point x="172" y="-310"/>
      <point x="333" y="-449"/>
      <point x="588" y="-449" type="curve" smooth="yes"/>
      <point x="917" y="-449"/>
      <point x="1104" y="-214"/>
      <point x="1104" y="83" type="curve" smooth="yes"/>
      <point x="1104" y="341"/>
      <point x="927" y="554"/>
      <point x="705" y="565" type="curve"/>
    </contour>
  </outline>
</glyph>
<glyph name="uni0277" format="2">
  <advance width="1351"/>
  <unicode hex="0277"/>
  <outline>
    <contour>
      <point x="1100" y="396" type="curve" smooth="yes"/>
      <point x="1100" y="220"/>
      <point x="1030" y="82"/>
      <point x="921" y="82" type="curve"/>
      <point x="752" y="82"/>
      <point x="725" y="255"/>
      <point x="725" y="300" type="curve" smooth="yes"/>
      <point x="725" y="456"/>
      <point x="778" y="461"/>
      <point x="778" y="575" type="curve" smooth="yes"/>
      <point x="778" y="673"/>
      <point x="729" y="710"/>
      <point x="677" y="710" type="curve" smooth="yes"/>
      <point x="626" y="710"/>
      <point x="573" y="665"/>
      <point x="573" y="579" type="curve" smooth="yes"/>
      <point x="573" y="450"/>
      <point x="627" y="454"/>
      <point x="627" y="298" type="curve" smooth="yes"/>
      <point x="627" y="250"/>
      <point x="594" y="82"/>
      <point x="433" y="82" type="curve" smooth="yes"/>
      <point x="322" y="82"/>
      <point x="252" y="219"/>
      <point x="252" y="396" type="curve" smooth="yes"/>
      <point x="252" y="619"/>
      <point x="299" y="929"/>
      <point x="677" y="929" type="curve" smooth="yes"/>
      <point x="1064" y="929"/>
      <point x="1100" y="619"/>
    </contour>
    <contour>
      <point x="1283" y="396" type="curve" smooth="yes"/>
      <point x="1283" y="798"/>
      <point x="1023" y="991"/>
      <point x="677" y="991" type="curve"/>
      <point x="333" y="991"/>
      <point x="68" y="800"/>
      <point x="68" y="396" type="curve" smooth="yes"/>
      <point x="68" y="158"/>
      <point x="176" y="-30"/>
      <point x="375" y="-30" type="curve" smooth="yes"/>
      <point x="512" y="-30"/>
      <point x="642" y="51"/>
      <point x="677" y="206" type="curve"/>
      <point x="708" y="52"/>
      <point x="836" y="-30"/>
      <point x="977" y="-30" type="curve"/>
      <point x="1175" y="-30"/>
      <point x="1283" y="158"/>
    </contour>
  </outline>
</glyph>
<glyph name="uni028B" format="2">
  <advance width="1078"/>
  <unicode hex="028B"/>
  <outline>
    <contour>
      <point x="576" y="938" type="curve" smooth="yes"/>
      <point x="576" y="906"/>
      <point x="605" y="884"/>
      <point x="653" y="884" type="curve" smooth="yes"/>
      <point x="792" y="884"/>
      <point x="887" y="778"/>
      <point x="887" y="528" type="curve" smooth="yes"/>
      <point x="887" y="285"/>
      <point x="763" y="86"/>
      <point x="607" y="86" type="curve" smooth="yes"/>
      <point x="535" y="86"/>
      <point x="416" y="150"/>
      <point x="416" y="277" type="curve"/>
      <point x="416" y="992" type="line"/>
      <point x="363" y="992" type="line"/>
      <point x="75" y="865" type="line"/>
      <point x="90" y="823" type="line"/>
      <point x="127" y="834"/>
      <point x="154" y="842"/>
      <point x="176" y="842" type="curve" smooth="yes"/>
      <point x="239" y="842"/>
      <point x="239" y="794"/>
      <point x="239" y="685" type="curve" smooth="yes"/>
      <point x="239" y="326" type="line" smooth="yes"/>
      <point x="239" y="232"/>
      <point x="275" y="137"/>
      <point x="341" y="78" type="curve" smooth="yes"/>
      <point x="426" y="2"/>
      <point x="522" y="-23"/>
      <point x="623" y="-23" type="curve" smooth="yes"/>
      <point x="906" y="-23"/>
      <point x="1081" y="206"/>
      <point x="1081" y="472" type="curve" smooth="yes"/>
      <point x="1081" y="738"/>
      <point x="876" y="992"/>
      <point x="640" y="992" type="curve" smooth="yes"/>
      <point x="601" y="992"/>
      <point x="576" y="971"/>
    </contour>
  </outline>
</glyph>
<glyph name="uni0297" format="2">
  <advance width="952"/>
  <unicode hex="0297"/>
  <outline>
    <contour>
      <point x="67" y="35" type="line"/>
      <point x="67" y="-231"/>
      <point x="255" y="-449"/>
      <point x="484" y="-449" type="curve" smooth="yes"/>
      <point x="690" y="-449"/>
      <point x="832" y="-302"/>
      <point x="892" y="-59" type="curve"/>
      <point x="851" y="-44" type="line"/>
      <point x="795" y="-182"/>
      <point x="716" y="-299"/>
      <point x="551" y="-299" type="curve" smooth="yes"/>
      <point x="367" y="-299"/>
      <point x="244" y="-89"/>
      <point x="244" y="159" type="curve"/>
      <point x="244" y="586" type="line"/>
      <point x="244" y="773"/>
      <point x="337" y="922"/>
      <point x="499" y="922" type="curve" smooth="yes"/>
      <point x="619" y="922"/>
      <point x="649" y="855"/>
      <point x="649" y="761" type="curve" smooth="yes"/>
      <point x="649" y="709"/>
      <point x="690" y="652"/>
      <point x="750" y="652" type="curve" smooth="yes"/>
      <point x="810" y="652"/>
      <point x="870" y="701"/>
      <point x="870" y="761" type="curve" smooth="yes"/>
      <point x="870" y="892"/>
      <point x="727" y="994"/>
      <point x="529" y="994" type="curve" smooth="yes"/>
      <point x="274" y="994"/>
      <point x="67" y="757"/>
      <point x="67" y="461" type="curve"/>
    </contour>
  </outline>
</glyph>
<glyph name="uni029D" format="2">
  <advance width="588"/>
  <unicode hex="029D"/>
  <outline>
    <contour>
      <point x="393" y="992" type="line"/>
      <point x="341" y="992" type="line"/>
      <point x="52" y="861" type="line"/>
      <point x="67" y="823" type="line"/>
      <point x="104" y="834"/>
      <point x="135" y="842"/>
      <point x="154" y="842" type="curve" smooth="yes"/>
      <point x="217" y="842"/>
      <point x="217" y="794"/>
      <point x="217" y="682" type="curve" smooth="yes"/>
      <point x="217" y="-98" type="line"/>
      <point x="183" y="-92"/>
      <point x="150" y="-90"/>
      <point x="122" y="-90" type="curve" smooth="yes"/>
      <point x="64" y="-90"/>
      <point x="15" y="-106"/>
      <point x="-19" y="-139" type="curve" smooth="yes"/>
      <point x="-52" y="-172"/>
      <point x="-71" y="-214"/>
      <point x="-71" y="-270" type="curve" smooth="yes"/>
      <point x="-71" y="-316"/>
      <point x="-54" y="-354"/>
      <point x="-29" y="-384" type="curve"/>
      <point x="8" y="-423"/>
      <point x="62" y="-449"/>
      <point x="116" y="-449" type="curve" smooth="yes"/>
      <point x="240" y="-449"/>
      <point x="332" y="-394"/>
      <point x="371" y="-248" type="curve"/>
      <point x="428" y="-292"/>
      <point x="477" y="-346"/>
      <point x="507" y="-385" type="curve"/>
      <point x="514" y="-395"/>
      <point x="522" y="-399"/>
      <point x="532" y="-399" type="curve" smooth="yes"/>
      <point x="549" y="-399"/>
      <point x="565" y="-382"/>
      <point x="565" y="-361" type="curve" smooth="yes"/>
      <point x="565" y="-352"/>
      <point x="561" y="-343"/>
      <point x="554" y="-331" type="curve"/>
      <point x="523" y="-287"/>
      <point x="455" y="-219"/>
      <point x="386" y="-171" type="curve"/>
      <point x="391" y="-137"/>
      <point x="393" y="-98"/>
      <point x="393" y="-56" type="curve" smooth="yes"/>
    </contour>
    <contour>
      <point x="127" y="-378" type="curve" smooth="yes"/>
      <point x="84" y="-378"/>
      <point x="52" y="-363"/>
      <point x="30" y="-341" type="curve" smooth="yes"/>
      <point x="11" y="-322"/>
      <point x="0" y="-295"/>
      <point x="0" y="-270" type="curve" smooth="yes"/>
      <point x="0" y="-237"/>
      <point x="9" y="-212"/>
      <point x="25" y="-195" type="curve"/>
      <point x="45" y="-172"/>
      <point x="77" y="-161"/>
      <point x="122" y="-161" type="curve" smooth="yes"/>
      <point x="146" y="-161"/>
      <point x="179" y="-162"/>
      <point x="217" y="-171" type="curve"/>
      <point x="217" y="-210" type="line" smooth="yes"/>
      <point x="217" y="-337"/>
      <point x="183" y="-378"/>
    </contour>
    <contour>
      <point x="303" y="1471" type="curve" smooth="yes"/>
      <point x="251" y="1471"/>
      <point x="202" y="1426"/>
      <point x="202" y="1374" type="curve" smooth="yes"/>
      <point x="202" y="1321"/>
      <point x="251" y="1276"/>
      <point x="303" y="1276" type="curve" smooth="yes"/>
      <point x="360" y="1276"/>
      <point x="404" y="1321"/>
      <point x="404" y="1374" type="curve" smooth="yes"/>
      <point x="404" y="1426"/>
      <point x="360" y="1471"/>
    </contour>
  </outline>
</glyph>
<glyph name="uni029F" format="2">
  <advance width="1112"/>
  <unicode hex="029F"/>
  <outline>
    <contour>
      <point x="212" y="158" type="line" smooth="yes"/>
      <point x="212" y="52"/>
      <point x="164" y="27"/>
      <point x="41" y="27" type="curve"/>
      <point x="41" y="0" type="line"/>
      <point x="969" y="0" type="line"/>
      <point x="1071" y="270" type="line"/>
      <point x="1037" y="277" type="line"/>
      <point x="986" y="150"/>
      <point x="882" y="48"/>
      <point x="682" y="48" type="curve" smooth="yes"/>
      <point x="459" y="48" type="line" smooth="yes"/>
      <point x="420" y="48"/>
      <point x="389" y="83"/>
      <point x="389" y="123" type="curve" smooth="yes"/>
      <point x="389" y="812" type="line" smooth="yes"/>
      <point x="389" y="917"/>
      <point x="436" y="943"/>
      <point x="556" y="943" type="curve"/>
      <point x="556" y="969" type="line"/>
      <point x="41" y="969" type="line"/>
      <point x="41" y="943" type="line"/>
      <point x="164" y="943"/>
      <point x="212" y="917"/>
      <point x="212" y="812" type="curve" smooth="yes"/>
    </contour>
  </outline>
  <guideline angle="0" x="0" y="992"/>
</glyph>
<glyph name="uni02D1" format="2">
  <advance width="356"/>
  <unicode hex="02D1"/>
  <outline>
    <contour>
      <point x="19" y="969" type="line"/>
      <point x="112" y="651" type="line"/>
      <point x="243" y="651" type="line"/>
      <point x="337" y="969" type="line"/>
    </contour>
  </outline>
</glyph>
<glyph name="uni0305" format="2">
  <unicode hex="0305"/>
  <outline>
    <contour>
      <point x="-1010" y="1506" type="line"/>
      <point x="-1010" y="1373" type="line"/>
      <point x="0" y="1373" type="line"/>
      <point x="0" y="1506" type="line"/>
    </contour>
  </outline>
</glyph>
<glyph name="uni0318" format="2">
  <unicode hex="0318"/>
  <outline>
    <contour>
      <point x="-468" y="-505" type="line"/>
      <point x="-356" y="-505" type="line"/>
      <point x="-356" y="-131" type="line"/>
      <point x="-468" y="-131" type="line"/>
      <point x="-468" y="-262" type="line"/>
      <point x="-692" y="-262" type="line"/>
      <point x="-692" y="-374" type="line"/>
      <point x="-468" y="-374" type="line"/>
    </contour>
  </outline>
</glyph>
<glyph name="uni0320" format="2">
  <unicode hex="0320"/>
  <outline>
    <contour>
      <point x="-337" y="-262" type="line"/>
      <point x="-337" y="-150" type="line"/>
      <point x="-711" y="-150" type="line"/>
      <point x="-711" y="-262" type="line"/>
    </contour>
  </outline>
</glyph>
<glyph name="uni0324" format="2">
  <advance width="2"/>
  <unicode hex="0324"/>
  <outline>
    <contour>
      <point x="-882" y="-262" type="curve" smooth="yes"/>
      <point x="-882" y="-318"/>
      <point x="-825" y="-374"/>
      <point x="-769" y="-374" type="curve" smooth="yes"/>
      <point x="-713" y="-374"/>
      <point x="-657" y="-318"/>
      <point x="-657" y="-262" type="curve" smooth="yes"/>
      <point x="-657" y="-206"/>
      <point x="-713" y="-150"/>
      <point x="-769" y="-150" type="curve" smooth="yes"/>
      <point x="-825" y="-150"/>
      <point x="-882" y="-206"/>
    </contour>
    <contour>
      <point x="-376" y="-262" type="curve" smooth="yes"/>
      <point x="-376" y="-318"/>
      <point x="-320" y="-374"/>
      <point x="-264" y="-374" type="curve" smooth="yes"/>
      <point x="-208" y="-374"/>
      <point x="-152" y="-318"/>
      <point x="-152" y="-262" type="curve" smooth="yes"/>
      <point x="-152" y="-206"/>
      <point x="-208" y="-150"/>
      <point x="-264" y="-150" type="curve" smooth="yes"/>
      <point x="-320" y="-150"/>
      <point x="-376" y="-206"/>
    </contour>
  </outline>
</glyph>
<glyph name="uni0325" format="2">
  <advance width="2"/>
  <unicode hex="0325"/>
  <outline>
    <contour>
      <point x="-815" y="-397" type="curve" smooth="yes"/>
      <point x="-815" y="-549"/>
      <point x="-694" y="-668"/>
      <point x="-543" y="-668" type="curve" smooth="yes"/>
      <point x="-391" y="-668"/>
      <point x="-272" y="-549"/>
      <point x="-272" y="-397" type="curve" smooth="yes"/>
      <point x="-272" y="-245"/>
      <point x="-391" y="-125"/>
      <point x="-543" y="-125" type="curve" smooth="yes"/>
      <point x="-694" y="-125"/>
      <point x="-815" y="-245"/>
    </contour>
    <contour>
      <point x="-728" y="-397" type="curve" smooth="yes"/>
      <point x="-728" y="-295"/>
      <point x="-644" y="-212"/>
      <point x="-543" y="-212" type="curve" smooth="yes"/>
      <point x="-441" y="-212"/>
      <point x="-358" y="-295"/>
      <point x="-358" y="-397" type="curve" smooth="yes"/>
      <point x="-358" y="-497"/>
      <point x="-441" y="-582"/>
      <point x="-543" y="-582" type="curve" smooth="yes"/>
      <point x="-644" y="-582"/>
      <point x="-728" y="-497"/>
    </contour>
  </outline>
</glyph>
<glyph name="uni0326" format="2">
  <unicode hex="0326"/>
  <outline>
    <contour>
      <point x="-606" y="-496" type="line"/>
      <point x="-498" y="-487"/>
      <point x="-404" y="-402"/>
      <point x="-404" y="-285" type="curve" smooth="yes"/>
      <point x="-404" y="-211"/>
      <point x="-455" y="-150"/>
      <point x="-518" y="-150" type="curve" smooth="yes"/>
      <point x="-568" y="-150"/>
      <point x="-606" y="-184"/>
      <point x="-606" y="-229" type="curve" smooth="yes"/>
      <point x="-606" y="-271"/>
      <point x="-577" y="-303"/>
      <point x="-543" y="-303" type="curve" smooth="yes"/>
      <point x="-509" y="-303"/>
      <point x="-507" y="-283"/>
      <point x="-485" y="-283" type="curve" smooth="yes"/>
      <point x="-473" y="-283"/>
      <point x="-464" y="-298"/>
      <point x="-464" y="-319" type="curve" smooth="yes"/>
      <point x="-464" y="-382"/>
      <point x="-527" y="-442"/>
      <point x="-606" y="-465" type="curve"/>
    </contour>
  </outline>
</glyph>
<glyph name="uni032B" format="2">
  <unicode hex="032B"/>
  <outline>
    <contour>
      <point x="-243" y="-150" type="line"/>
      <point x="-266" y="-206"/>
      <point x="-299" y="-262"/>
      <point x="-374" y="-262" type="curve" smooth="yes"/>
      <point x="-430" y="-262"/>
      <point x="-483" y="-206"/>
      <point x="-505" y="-150" type="curve"/>
      <point x="-543" y="-150" type="line"/>
      <point x="-565" y="-206"/>
      <point x="-599" y="-262"/>
      <point x="-674" y="-262" type="curve" smooth="yes"/>
      <point x="-730" y="-262"/>
      <point x="-782" y="-206"/>
      <point x="-805" y="-150" type="curve"/>
      <point x="-842" y="-150" type="line"/>
      <point x="-823" y="-243"/>
      <point x="-767" y="-356"/>
      <point x="-674" y="-356" type="curve" smooth="yes"/>
      <point x="-588" y="-356"/>
      <point x="-546" y="-291"/>
      <point x="-523" y="-219" type="curve"/>
      <point x="-495" y="-291"/>
      <point x="-445" y="-356"/>
      <point x="-374" y="-356" type="curve" smooth="yes"/>
      <point x="-262" y="-356"/>
      <point x="-225" y="-243"/>
      <point x="-206" y="-150" type="curve"/>
    </contour>
  </outline>
</glyph>
<glyph name="uni0339" format="2">
  <unicode hex="0339"/>
  <outline>
    <contour>
      <point x="-618" y="-711" type="line"/>
      <point x="-462" y="-711"/>
      <point x="-337" y="-586"/>
      <point x="-337" y="-430" type="curve" smooth="yes"/>
      <point x="-337" y="-275"/>
      <point x="-462" y="-150"/>
      <point x="-618" y="-150" type="curve"/>
      <point x="-618" y="-262" type="line"/>
      <point x="-524" y="-262"/>
      <point x="-449" y="-337"/>
      <point x="-449" y="-430" type="curve" smooth="yes"/>
      <point x="-449" y="-524"/>
      <point x="-524" y="-599"/>
      <point x="-618" y="-599" type="curve"/>
    </contour>
  </outline>
</glyph>
<glyph name="uni033A" format="2">
  <unicode hex="033A"/>
  <outline>
    <contour>
      <point x="-692" y="-150" type="line"/>
      <point x="-805" y="-150" type="line"/>
      <point x="-805" y="-524" type="line"/>
      <point x="-243" y="-524" type="line"/>
      <point x="-243" y="-150" type="line"/>
      <point x="-356" y="-150" type="line"/>
      <point x="-356" y="-412" type="line"/>
      <point x="-692" y="-412" type="line"/>
    </contour>
  </outline>
</glyph>
<glyph name="uni033B" format="2">
  <unicode hex="033B"/>
  <outline>
    <contour>
      <point x="-805" y="-150" type="line"/>
      <point x="-805" y="-711" type="line"/>
      <point x="-243" y="-711" type="line"/>
      <point x="-243" y="-150" type="line"/>
    </contour>
    <contour>
      <point x="-692" y="-262" type="line"/>
      <point x="-356" y="-262" type="line"/>
      <point x="-356" y="-599" type="line"/>
      <point x="-692" y="-599" type="line"/>
    </contour>
  </outline>
</glyph>
<glyph name="uni033D" format="2">
  <unicode hex="033D"/>
  <outline>
    <contour>
      <point x="-601" y="1293" type="line"/>
      <point x="-797" y="1116" type="line"/>
      <point x="-685" y="1116" type="line"/>
      <point x="-545" y="1249" type="line"/>
      <point x="-423" y="1116" type="line"/>
      <point x="-310" y="1116" type="line"/>
      <point x="-489" y="1293" type="line"/>
      <point x="-310" y="1471" type="line"/>
      <point x="-422" y="1471" type="line"/>
      <point x="-547" y="1346" type="line"/>
      <point x="-685" y="1471" type="line"/>
      <point x="-797" y="1471" type="line"/>
    </contour>
  </outline>
</glyph>
<glyph name="theta" format="2">
  <advance width="1078"/>
  <unicode hex="03B8"/>
  <outline>
    <contour>
      <point x="539" y="-33" type="curve" smooth="yes"/>
      <point x="827" y="-33"/>
      <point x="1021" y="285"/>
      <point x="1021" y="726" type="curve" smooth="yes"/>
      <point x="1021" y="1134"/>
      <point x="827" y="1471"/>
      <point x="539" y="1471" type="curve" smooth="yes"/>
      <point x="251" y="1471"/>
      <point x="56" y="1134"/>
      <point x="56" y="726" type="curve" smooth="yes"/>
      <point x="56" y="285"/>
      <point x="251" y="-33"/>
    </contour>
    <contour>
      <point x="539" y="37" type="curve" smooth="yes"/>
      <point x="374" y="37"/>
      <point x="288" y="321"/>
      <point x="278" y="655" type="curve"/>
      <point x="800" y="655" type="line"/>
      <point x="789" y="321"/>
      <point x="703" y="37"/>
    </contour>
    <contour>
      <point x="539" y="1400" type="curve" smooth="yes"/>
      <point x="704" y="1400"/>
      <point x="790" y="1127"/>
      <point x="800" y="794" type="curve"/>
      <point x="278" y="794" type="line"/>
      <point x="288" y="1127"/>
      <point x="374" y="1400"/>
    </contour>
  </outline>
</glyph>
<glyph name="uni1789" format="2">
  <advance width="2116"/>
  <unicode hex="1789"/>
  <anchor x="1871" y="-598" name="L"/>
  <anchor x="1871" y="1440" name="U"/>
  <anchor x="1457" y="1440" name="um"/>
  <outline>
    <contour>
      <point x="1231" y="0" type="line"/>
      <point x="1231" y="1171" type="line"/>
      <point x="1243" y="1261"/>
      <point x="1347" y="1328"/>
      <point x="1457" y="1328" type="curve" smooth="yes"/>
      <point x="1567" y="1328"/>
      <point x="1683" y="1257"/>
      <point x="1683" y="1163" type="curve" smooth="yes"/>
      <point x="1683" y="0" type="line"/>
      <point x="1871" y="0" type="line"/>
      <point x="1871" y="1200" type="line" smooth="yes"/>
      <point x="1871" y="1336"/>
      <point x="1653" y="1440"/>
      <point x="1457" y="1440" type="curve" smooth="yes"/>
      <point x="1341" y="1440"/>
      <point x="1218" y="1404"/>
      <point x="1137" y="1343" type="curve"/>
      <point x="1089" y="1396"/>
      <point x="1031" y="1440"/>
      <point x="984" y="1440" type="curve" smooth="yes"/>
      <point x="931" y="1440"/>
      <point x="887" y="1396"/>
      <point x="846" y="1350" type="curve" smooth="yes"/>
      <point x="813" y="1313"/>
      <point x="774" y="1276"/>
      <point x="763" y="1276" type="curve" smooth="yes"/>
      <point x="752" y="1276"/>
      <point x="713" y="1313"/>
      <point x="680" y="1350" type="curve" smooth="yes"/>
      <point x="639" y="1396"/>
      <point x="595" y="1440"/>
      <point x="542" y="1440" type="curve" smooth="yes"/>
      <point x="441" y="1440"/>
      <point x="295" y="1242"/>
      <point x="295" y="1182" type="curve" smooth="yes"/>
      <point x="295" y="79" type="line"/>
      <point x="320" y="16"/>
      <point x="401" y="0"/>
      <point x="466" y="0" type="curve"/>
      <point x="632" y="31"/>
      <point x="710" y="169"/>
      <point x="710" y="248" type="curve" smooth="yes"/>
      <point x="710" y="376"/>
      <point x="610" y="444"/>
      <point x="483" y="451" type="curve"/>
      <point x="483" y="1145" type="line" smooth="yes"/>
      <point x="483" y="1193"/>
      <point x="539" y="1272"/>
      <point x="564" y="1272" type="curve" smooth="yes"/>
      <point x="568" y="1272"/>
      <point x="604" y="1238"/>
      <point x="636" y="1204" type="curve" smooth="yes"/>
      <point x="673" y="1163"/>
      <point x="714" y="1121"/>
      <point x="763" y="1121" type="curve" smooth="yes"/>
      <point x="812" y="1121"/>
      <point x="853" y="1163"/>
      <point x="890" y="1204" type="curve" smooth="yes"/>
      <point x="922" y="1238"/>
      <point x="958" y="1272"/>
      <point x="962" y="1272" type="curve" smooth="yes"/>
      <point x="987" y="1272"/>
      <point x="1043" y="1193"/>
      <point x="1043" y="1145" type="curve" smooth="yes"/>
      <point x="1043" y="0" type="line"/>
    </contour>
    <contour>
      <point x="1552" y="-259" type="curve" smooth="yes"/>
      <point x="1552" y="-319"/>
      <point x="1616" y="-371"/>
      <point x="1671" y="-374" type="curve"/>
      <point x="1671" y="-461"/>
      <point x="1609" y="-485"/>
      <point x="1567" y="-485" type="curve" smooth="yes"/>
      <point x="1399" y="-485"/>
      <point x="1263" y="-402"/>
      <point x="1132" y="-321" type="curve" smooth="yes"/>
      <point x="1015" y="-248"/>
      <point x="904" y="-176"/>
      <point x="764" y="-176" type="curve" smooth="yes"/>
      <point x="554" y="-176"/>
      <point x="446" y="-342"/>
      <point x="446" y="-380" type="curve"/>
      <point x="539" y="-304"/>
      <point x="615" y="-292"/>
      <point x="743" y="-292" type="curve" smooth="yes"/>
      <point x="839" y="-292"/>
      <point x="944" y="-351"/>
      <point x="1054" y="-418" type="curve" smooth="yes"/>
      <point x="1192" y="-502"/>
      <point x="1348" y="-598"/>
      <point x="1556" y="-598" type="curve" smooth="yes"/>
      <point x="1774" y="-598"/>
      <point x="1871" y="-477"/>
      <point x="1871" y="-301" type="curve" smooth="yes"/>
      <point x="1871" y="-200"/>
      <point x="1773" y="-148"/>
      <point x="1690" y="-148" type="curve" smooth="yes"/>
      <point x="1626" y="-148"/>
      <point x="1552" y="-197"/>
    </contour>
    <contour>
      <point x="588" y="257" type="curve" smooth="yes"/>
      <point x="588" y="196"/>
      <point x="534" y="159"/>
      <point x="483" y="137" type="curve"/>
      <point x="483" y="345" type="line"/>
      <point x="531" y="338"/>
      <point x="588" y="307"/>
    </contour>
  </outline>
</glyph>
<glyph name="uni1796" format="2">
  <advance width="1476"/>
  <unicode hex="1796"/>
  <anchor x="1231" y="0" name="L"/>
  <anchor x="1231" y="1440" name="U"/>
  <anchor x="763" y="0" name="lm"/>
  <anchor x="763" y="1440" name="um"/>
  <outline>
    <contour>
      <point x="1231" y="0" type="line"/>
      <point x="1231" y="1182" type="line" smooth="yes"/>
      <point x="1231" y="1242"/>
      <point x="1085" y="1440"/>
      <point x="984" y="1440" type="curve" smooth="yes"/>
      <point x="931" y="1440"/>
      <point x="887" y="1396"/>
      <point x="846" y="1350" type="curve" smooth="yes"/>
      <point x="813" y="1313"/>
      <point x="774" y="1276"/>
      <point x="763" y="1276" type="curve" smooth="yes"/>
      <point x="752" y="1276"/>
      <point x="713" y="1313"/>
      <point x="680" y="1350" type="curve" smooth="yes"/>
      <point x="639" y="1396"/>
      <point x="595" y="1440"/>
      <point x="542" y="1440" type="curve" smooth="yes"/>
      <point x="441" y="1440"/>
      <point x="295" y="1242"/>
      <point x="295" y="1182" type="curve" smooth="yes"/>
      <point x="295" y="79" type="line"/>
      <point x="320" y="16"/>
      <point x="401" y="0"/>
      <point x="466" y="0" type="curve"/>
      <point x="632" y="31"/>
      <point x="710" y="169"/>
      <point x="710" y="248" type="curve" smooth="yes"/>
      <point x="710" y="376"/>
      <point x="610" y="444"/>
      <point x="483" y="451" type="curve"/>
      <point x="483" y="1145" type="line" smooth="yes"/>
      <point x="483" y="1193"/>
      <point x="539" y="1272"/>
      <point x="564" y="1272" type="curve" smooth="yes"/>
      <point x="568" y="1272"/>
      <point x="604" y="1238"/>
      <point x="636" y="1204" type="curve" smooth="yes"/>
      <point x="673" y="1163"/>
      <point x="714" y="1121"/>
      <point x="763" y="1121" type="curve" smooth="yes"/>
      <point x="812" y="1121"/>
      <point x="853" y="1163"/>
      <point x="890" y="1204" type="curve" smooth="yes"/>
      <point x="922" y="1238"/>
      <point x="958" y="1272"/>
      <point x="962" y="1272" type="curve" smooth="yes"/>
      <point x="987" y="1272"/>
      <point x="1043" y="1193"/>
      <point x="1043" y="1145" type="curve" smooth="yes"/>
      <point x="1043" y="0" type="line"/>
    </contour>
    <contour>
      <point x="588" y="257" type="curve" smooth="yes"/>
      <point x="588" y="196"/>
      <point x="534" y="159"/>
      <point x="483" y="137" type="curve"/>
      <point x="483" y="345" type="line"/>
      <point x="531" y="338"/>
      <point x="588" y="307"/>
    </contour>
  </outline>
</glyph>
<glyph name="uni17A2" format="2">
  <advance width="1448"/>
  <unicode hex="17A2"/>
  <anchor x="1203" y="0" name="L"/>
  <anchor x="1203" y="1440" name="U"/>
  <anchor x="769" y="0" name="lm"/>
  <anchor x="769" y="1440" name="um"/>
  <outline>
    <contour>
      <point x="335" y="923" type="curve"/>
      <point x="335" y="451" type="line"/>
      <point x="208" y="444"/>
      <point x="108" y="376"/>
      <point x="108" y="248" type="curve" smooth="yes"/>
      <point x="108" y="169"/>
      <point x="186" y="31"/>
      <point x="352" y="0" type="curve"/>
      <point x="417" y="0"/>
      <point x="498" y="16"/>
      <point x="523" y="79" type="curve"/>
      <point x="523" y="610" type="line"/>
      <point x="1015" y="610" type="line"/>
      <point x="1015" y="451" type="line"/>
      <point x="888" y="444"/>
      <point x="788" y="376"/>
      <point x="788" y="248" type="curve" smooth="yes"/>
      <point x="788" y="169"/>
      <point x="866" y="31"/>
      <point x="1032" y="0" type="curve"/>
      <point x="1097" y="0"/>
      <point x="1178" y="16"/>
      <point x="1203" y="79" type="curve"/>
      <point x="1203" y="980" type="line" smooth="yes"/>
      <point x="1203" y="1024"/>
      <point x="1140" y="1054"/>
      <point x="1061" y="1092" type="curve" smooth="yes"/>
      <point x="1013" y="1115"/>
      <point x="965" y="1138"/>
      <point x="965" y="1193" type="curve" smooth="yes"/>
      <point x="965" y="1242"/>
      <point x="993" y="1282"/>
      <point x="1029" y="1282" type="curve" smooth="yes"/>
      <point x="1040" y="1282"/>
      <point x="1061" y="1276"/>
      <point x="1091" y="1253" type="curve" smooth="yes"/>
      <point x="1119" y="1231"/>
      <point x="1158" y="1204"/>
      <point x="1222" y="1204" type="curve" smooth="yes"/>
      <point x="1319" y="1204"/>
      <point x="1372" y="1257"/>
      <point x="1376" y="1374" type="curve"/>
      <point x="1353" y="1354"/>
      <point x="1330" y="1346"/>
      <point x="1315" y="1346" type="curve" smooth="yes"/>
      <point x="1274" y="1346"/>
      <point x="1233" y="1370"/>
      <point x="1195" y="1396" type="curve" smooth="yes"/>
      <point x="1161" y="1418"/>
      <point x="1127" y="1440"/>
      <point x="1079" y="1440" type="curve" smooth="yes"/>
      <point x="965" y="1440"/>
      <point x="842" y="1306"/>
      <point x="842" y="1189" type="curve" smooth="yes"/>
      <point x="842" y="1118"/>
      <point x="865" y="1063"/>
      <point x="947" y="1016" type="curve"/>
      <point x="982" y="1002"/>
      <point x="1015" y="980"/>
      <point x="1015" y="923" type="curve" smooth="yes"/>
      <point x="1015" y="740" type="line"/>
      <point x="523" y="740" type="line"/>
      <point x="523" y="980" type="line" smooth="yes"/>
      <point x="523" y="1024"/>
      <point x="460" y="1054"/>
      <point x="381" y="1092" type="curve" smooth="yes"/>
      <point x="333" y="1115"/>
      <point x="285" y="1138"/>
      <point x="285" y="1193" type="curve" smooth="yes"/>
      <point x="285" y="1242"/>
      <point x="313" y="1282"/>
      <point x="349" y="1282" type="curve" smooth="yes"/>
      <point x="360" y="1282"/>
      <point x="381" y="1276"/>
      <point x="411" y="1253" type="curve" smooth="yes"/>
      <point x="439" y="1231"/>
      <point x="478" y="1204"/>
      <point x="542" y="1204" type="curve" smooth="yes"/>
      <point x="639" y="1204"/>
      <point x="692" y="1257"/>
      <point x="696" y="1374" type="curve"/>
      <point x="673" y="1354"/>
      <point x="650" y="1346"/>
      <point x="635" y="1346" type="curve" smooth="yes"/>
      <point x="594" y="1346"/>
      <point x="553" y="1370"/>
      <point x="515" y="1396" type="curve" smooth="yes"/>
      <point x="481" y="1418"/>
      <point x="447" y="1440"/>
      <point x="399" y="1440" type="curve" smooth="yes"/>
      <point x="285" y="1440"/>
      <point x="162" y="1306"/>
      <point x="162" y="1189" type="curve" smooth="yes"/>
      <point x="162" y="1118"/>
      <point x="185" y="1063"/>
      <point x="267" y="1016" type="curve"/>
      <point x="302" y="1002"/>
      <point x="335" y="980"/>
    </contour>
    <contour>
      <point x="230" y="257" type="curve" smooth="yes"/>
      <point x="230" y="307"/>
      <point x="287" y="338"/>
      <point x="335" y="345" type="curve"/>
      <point x="335" y="137" type="line"/>
      <point x="284" y="159"/>
      <point x="230" y="196"/>
    </contour>
    <contour>
      <point x="910" y="257" type="curve" smooth="yes"/>
      <point x="910" y="307"/>
      <point x="967" y="338"/>
      <point x="1015" y="345" type="curve"/>
      <point x="1015" y="137" type="line"/>
      <point x="964" y="159"/>
      <point x="910" y="196"/>
    </contour>
  </outline>
</glyph>
<glyph name="uni17CD" format="2">
  <unicode hex="17CD"/>
  <anchor x="-245" y="2399" name="U"/>
  <anchor x="-719" y="1440" name="_um"/>
  <anchor x="-719" y="2349" name="um"/>
  <outline>
    <contour>
      <point x="-719" y="1590" type="curve" smooth="yes"/>
      <point x="-591" y="1590"/>
      <point x="-491" y="1682"/>
      <point x="-491" y="1756" type="curve"/>
      <point x="-491" y="1783"/>
      <point x="-529" y="1813"/>
      <point x="-580" y="1813" type="curve"/>
      <point x="-626" y="1813"/>
      <point x="-637" y="1794"/>
      <point x="-655" y="1764" type="curve"/>
      <point x="-674" y="1737"/>
      <point x="-697" y="1720"/>
      <point x="-719" y="1720" type="curve"/>
      <point x="-765" y="1720"/>
      <point x="-795" y="1760"/>
      <point x="-795" y="1816" type="curve"/>
      <point x="-795" y="1873"/>
      <point x="-742" y="1937"/>
      <point x="-663" y="1948" type="curve" smooth="yes"/>
      <point x="-501" y="1969"/>
      <point x="-341" y="2052"/>
      <point x="-341" y="2230" type="curve"/>
      <point x="-341" y="2303"/>
      <point x="-408" y="2382"/>
      <point x="-569" y="2399" type="curve"/>
      <point x="-533" y="2371"/>
      <point x="-509" y="2335"/>
      <point x="-509" y="2259" type="curve"/>
      <point x="-509" y="2173"/>
      <point x="-548" y="2090"/>
      <point x="-690" y="2076" type="curve" smooth="yes"/>
      <point x="-884" y="2056"/>
      <point x="-963" y="1913"/>
      <point x="-963" y="1816" type="curve"/>
      <point x="-963" y="1693"/>
      <point x="-855" y="1590"/>
    </contour>
  </outline>
</glyph>
<glyph name="uni17D7" format="2">
  <advance width="1402"/>
  <unicode hex="17D7"/>
  <outline>
    <contour>
      <point x="968" y="136" type="line"/>
      <point x="968" y="-94"/>
      <point x="885" y="-152"/>
      <point x="743" y="-152" type="curve" smooth="yes"/>
      <point x="656" y="-152"/>
      <point x="596" y="-115"/>
      <point x="545" y="-46" type="curve" smooth="yes"/>
      <point x="521" y="-15"/>
      <point x="477" y="0"/>
      <point x="445" y="0" type="curve" smooth="yes"/>
      <point x="394" y="0"/>
      <point x="363" y="-33"/>
      <point x="363" y="-64" type="curve" smooth="yes"/>
      <point x="363" y="-83"/>
      <point x="370" y="-98"/>
      <point x="378" y="-108" type="curve"/>
      <point x="434" y="-190"/>
      <point x="570" y="-282"/>
      <point x="743" y="-282" type="curve" smooth="yes"/>
      <point x="986" y="-282"/>
      <point x="1156" y="-190"/>
      <point x="1156" y="121" type="curve" smooth="yes"/>
      <point x="1156" y="1092" type="line"/>
      <point x="1156" y="1336"/>
      <point x="1073" y="1440"/>
      <point x="930" y="1440" type="curve" smooth="yes"/>
      <point x="856" y="1440"/>
      <point x="803" y="1393"/>
      <point x="760" y="1350" type="curve" smooth="yes"/>
      <point x="728" y="1317"/>
      <point x="702" y="1295"/>
      <point x="686" y="1295" type="curve" smooth="yes"/>
      <point x="671" y="1295"/>
      <point x="645" y="1316"/>
      <point x="612" y="1350" type="curve" smooth="yes"/>
      <point x="570" y="1392"/>
      <point x="513" y="1440"/>
      <point x="442" y="1440" type="curve" smooth="yes"/>
      <point x="312" y="1440"/>
      <point x="216" y="1299"/>
      <point x="216" y="1138" type="curve"/>
      <point x="216" y="1010"/>
      <point x="248" y="949"/>
      <point x="328" y="889" type="curve" smooth="yes"/>
      <point x="363" y="863"/>
      <point x="402" y="852"/>
      <point x="457" y="852" type="curve" smooth="yes"/>
      <point x="539" y="852"/>
      <point x="623" y="896"/>
      <point x="623" y="984" type="curve" smooth="yes"/>
      <point x="623" y="1039"/>
      <point x="570" y="1078"/>
      <point x="502" y="1078" type="curve" smooth="yes"/>
      <point x="460" y="1078"/>
      <point x="427" y="1067"/>
      <point x="406" y="1042" type="curve"/>
      <point x="398" y="1063"/>
      <point x="391" y="1103"/>
      <point x="391" y="1132" type="curve" smooth="yes"/>
      <point x="391" y="1197"/>
      <point x="414" y="1295"/>
      <point x="461" y="1295" type="curve" smooth="yes"/>
      <point x="478" y="1295"/>
      <point x="510" y="1264"/>
      <point x="544" y="1230" type="curve" smooth="yes"/>
      <point x="589" y="1185"/>
      <point x="638" y="1145"/>
      <point x="686" y="1145" type="curve" smooth="yes"/>
      <point x="735" y="1145"/>
      <point x="783" y="1185"/>
      <point x="828" y="1230" type="curve" smooth="yes"/>
      <point x="862" y="1264"/>
      <point x="896" y="1295"/>
      <point x="911" y="1295" type="curve" smooth="yes"/>
      <point x="953" y="1295"/>
      <point x="968" y="1208"/>
      <point x="968" y="1078" type="curve"/>
    </contour>
  </outline>
</glyph>
<glyph name="uni17E6" format="2">
  <advance width="1210"/>
  <unicode hex="17E6"/>
  <outline>
    <contour>
      <point x="1093" y="720" type="curve" smooth="yes"/>
      <point x="1093" y="1171"/>
      <point x="865" y="1440"/>
      <point x="643" y="1440" type="curve"/>
      <point x="536" y="1440"/>
      <point x="483" y="1421"/>
      <point x="415" y="1385" type="curve"/>
      <point x="457" y="1449"/>
      <point x="493" y="1518"/>
      <point x="493" y="1597" type="curve"/>
      <point x="493" y="1703"/>
      <point x="389" y="1743"/>
      <point x="310" y="1743" type="curve"/>
      <point x="224" y="1743"/>
      <point x="156" y="1679"/>
      <point x="117" y="1597" type="curve"/>
      <point x="170" y="1617"/>
      <point x="213" y="1628"/>
      <point x="234" y="1628" type="curve"/>
      <point x="288" y="1628"/>
      <point x="321" y="1590"/>
      <point x="321" y="1549" type="curve"/>
      <point x="321" y="1407"/>
      <point x="234" y="1208"/>
      <point x="174" y="1114" type="curve"/>
      <point x="224" y="1129" type="line"/>
      <point x="306" y="1238"/>
      <point x="483" y="1306"/>
      <point x="628" y="1306" type="curve" smooth="yes"/>
      <point x="794" y="1306"/>
      <point x="905" y="946"/>
      <point x="905" y="720" type="curve"/>
      <point x="905" y="420"/>
      <point x="750" y="132"/>
      <point x="579" y="132" type="curve"/>
      <point x="392" y="132"/>
      <point x="305" y="360"/>
      <point x="305" y="484" type="curve"/>
      <point x="305" y="594"/>
      <point x="321" y="705"/>
      <point x="400" y="705" type="curve"/>
      <point x="407" y="705"/>
      <point x="422" y="698"/>
      <point x="425" y="687" type="curve"/>
      <point x="407" y="676"/>
      <point x="393" y="641"/>
      <point x="393" y="609" type="curve"/>
      <point x="393" y="544"/>
      <point x="451" y="494"/>
      <point x="526" y="494" type="curve"/>
      <point x="609" y="494"/>
      <point x="659" y="541"/>
      <point x="659" y="641" type="curve"/>
      <point x="659" y="762"/>
      <point x="539" y="826"/>
      <point x="438" y="826" type="curve"/>
      <point x="217" y="826"/>
      <point x="117" y="641"/>
      <point x="117" y="480" type="curve"/>
      <point x="117" y="211"/>
      <point x="340" y="0"/>
      <point x="579" y="0" type="curve"/>
      <point x="847" y="0"/>
      <point x="1093" y="296"/>
    </contour>
  </outline>
</glyph>
<glyph name="uni17F3" format="2">
  <advance width="2098"/>
  <unicode hex="17F3"/>
  <outline>
    <contour>
      <point x="1146" y="294" type="line"/>
      <point x="1415" y="950" type="line"/>
      <point x="1684" y="294" type="line"/>
      <point x="1878" y="294" type="line"/>
      <point x="1512" y="1187" type="line"/>
      <point x="1318" y="1187" type="line"/>
      <point x="1049" y="530" type="line"/>
      <point x="780" y="1187" type="line"/>
      <point x="586" y="1187" type="line"/>
      <point x="220" y="294" type="line"/>
      <point x="414" y="294" type="line"/>
      <point x="683" y="950" type="line"/>
      <point x="952" y="294" type="line"/>
    </contour>
  </outline>
</glyph>
<glyph name="uni17F4" format="2">
  <advance width="1366"/>
  <unicode hex="17F4"/>
  <outline>
    <contour>
      <point x="952" y="1186" type="line"/>
      <point x="683" y="530" type="line"/>
      <point x="414" y="1186" type="line"/>
      <point x="220" y="1186" type="line"/>
      <point x="586" y="293" type="line"/>
      <point x="780" y="293" type="line"/>
      <point x="1146" y="1186" type="line"/>
    </contour>
  </outline>
</glyph>
<glyph name="uni1EAB" format="2">
  <advance width="940"/>
  <unicode hex="1EAB"/>
  <outline>
    <contour>
      <point x="771" y="734" type="line" smooth="yes"/>
      <point x="771" y="890"/>
      <point x="688" y="992"/>
      <point x="460" y="992" type="curve" smooth="yes"/>
      <point x="266" y="992"/>
      <point x="101" y="894"/>
      <point x="101" y="763" type="curve" smooth="yes"/>
      <point x="101" y="700"/>
      <point x="139" y="651"/>
      <point x="195" y="651" type="curve" smooth="yes"/>
      <point x="266" y="651"/>
      <point x="281" y="711"/>
      <point x="281" y="778" type="curve" smooth="yes"/>
      <point x="281" y="853"/>
      <point x="307" y="928"/>
      <point x="426" y="928" type="curve" smooth="yes"/>
      <point x="532" y="928"/>
      <point x="595" y="869"/>
      <point x="595" y="688" type="curve" smooth="yes"/>
      <point x="595" y="628" type="line"/>
      <point x="366" y="557"/>
      <point x="67" y="472"/>
      <point x="67" y="221" type="curve" smooth="yes"/>
      <point x="67" y="86"/>
      <point x="154" y="-23"/>
      <point x="292" y="-23" type="curve" smooth="yes"/>
      <point x="445" y="-23"/>
      <point x="513" y="64"/>
      <point x="595" y="135" type="curve"/>
      <point x="595" y="67"/>
      <point x="628" y="-23"/>
      <point x="700" y="-23" type="curve" smooth="yes"/>
      <point x="809" y="-23"/>
      <point x="884" y="45"/>
      <point x="928" y="123" type="curve"/>
      <point x="928" y="195" type="line"/>
      <point x="898" y="150"/>
      <point x="869" y="108"/>
      <point x="819" y="108" type="curve" smooth="yes"/>
      <point x="786" y="108"/>
      <point x="771" y="142"/>
      <point x="771" y="183" type="curve" smooth="yes"/>
    </contour>
    <contour>
      <point x="595" y="202" type="line"/>
      <point x="528" y="146"/>
      <point x="464" y="98"/>
      <point x="385" y="98" type="curve" smooth="yes"/>
      <point x="314" y="98"/>
      <point x="243" y="176"/>
      <point x="243" y="273" type="curve" smooth="yes"/>
      <point x="243" y="412"/>
      <point x="445" y="513"/>
      <point x="595" y="565" type="curve"/>
    </contour>
    <contour>
      <point x="356" y="1411" type="line"/>
      <point x="146" y="1059" type="line"/>
      <point x="179" y="1059" type="line"/>
      <point x="457" y="1283" type="line"/>
      <point x="734" y="1059" type="line"/>
      <point x="771" y="1059" type="line"/>
      <point x="557" y="1411" type="line"/>
    </contour>
    <contour>
      <point x="171" y="1520" type="line"/>
      <point x="182" y="1580"/>
      <point x="204" y="1670"/>
      <point x="279" y="1670" type="curve" smooth="yes"/>
      <point x="325" y="1670"/>
      <point x="381" y="1634"/>
      <point x="441" y="1595" type="curve" smooth="yes"/>
      <point x="500" y="1557"/>
      <point x="564" y="1520"/>
      <point x="635" y="1520" type="curve" smooth="yes"/>
      <point x="793" y="1520"/>
      <point x="845" y="1670"/>
      <point x="845" y="1801" type="curve"/>
      <point x="815" y="1801" type="line"/>
      <point x="803" y="1741"/>
      <point x="781" y="1655"/>
      <point x="706" y="1655" type="curve" smooth="yes"/>
      <point x="662" y="1655"/>
      <point x="605" y="1688"/>
      <point x="545" y="1726" type="curve" smooth="yes"/>
      <point x="485" y="1763"/>
      <point x="422" y="1801"/>
      <point x="350" y="1801" type="curve" smooth="yes"/>
      <point x="194" y="1801"/>
      <point x="138" y="1655"/>
      <point x="138" y="1520" type="curve"/>
    </contour>
  </outline>
</glyph>
<glyph name="uni1EBD" format="2">
  <advance width="977"/>
  <unicode hex="1EBD"/>
  <outline>
    <contour>
      <point x="501" y="-23" type="curve" smooth="yes"/>
      <point x="682" y="-23"/>
      <point x="869" y="142"/>
      <point x="921" y="341" type="curve"/>
      <point x="880" y="348" type="line"/>
      <point x="850" y="225"/>
      <point x="700" y="127"/>
      <point x="551" y="127" type="curve" smooth="yes"/>
      <point x="366" y="127"/>
      <point x="235" y="337"/>
      <point x="235" y="599" type="curve"/>
      <point x="894" y="599" type="line"/>
      <point x="894" y="816"/>
      <point x="734" y="992"/>
      <point x="501" y="992" type="curve" smooth="yes"/>
      <point x="239" y="992"/>
      <point x="67" y="763"/>
      <point x="67" y="449" type="curve" smooth="yes"/>
      <point x="67" y="191"/>
      <point x="262" y="-23"/>
    </contour>
    <contour>
      <point x="235" y="651" type="line"/>
      <point x="247" y="797"/>
      <point x="341" y="921"/>
      <point x="449" y="921" type="curve" smooth="yes"/>
      <point x="576" y="921"/>
      <point x="678" y="797"/>
      <point x="678" y="651" type="curve"/>
    </contour>
    <contour>
      <point x="171" y="1190" type="line"/>
      <point x="182" y="1250"/>
      <point x="204" y="1340"/>
      <point x="279" y="1340" type="curve" smooth="yes"/>
      <point x="325" y="1340"/>
      <point x="381" y="1304"/>
      <point x="441" y="1265" type="curve" smooth="yes"/>
      <point x="500" y="1227"/>
      <point x="564" y="1190"/>
      <point x="635" y="1190" type="curve" smooth="yes"/>
      <point x="793" y="1190"/>
      <point x="845" y="1340"/>
      <point x="845" y="1471" type="curve"/>
      <point x="815" y="1471" type="line"/>
      <point x="803" y="1411"/>
      <point x="781" y="1325"/>
      <point x="706" y="1325" type="curve" smooth="yes"/>
      <point x="662" y="1325"/>
      <point x="605" y="1358"/>
      <point x="545" y="1396" type="curve" smooth="yes"/>
      <point x="485" y="1433"/>
      <point x="422" y="1471"/>
      <point x="350" y="1471" type="curve" smooth="yes"/>
      <point x="194" y="1471"/>
      <point x="138" y="1325"/>
      <point x="138" y="1190" type="curve"/>
    </contour>
  </outline>
</glyph>
<glyph name="uni1ECF" format="2">
  <advance width="1071"/>
  <unicode hex="1ECF"/>
  <outline>
    <contour>
      <point x="535" y="-23" type="curve" smooth="yes"/>
      <point x="805" y="-23"/>
      <point x="1003" y="221"/>
      <point x="1003" y="513" type="curve" smooth="yes"/>
      <point x="1003" y="778"/>
      <point x="805" y="992"/>
      <point x="535" y="992" type="curve" smooth="yes"/>
      <point x="266" y="992"/>
      <point x="67" y="759"/>
      <point x="67" y="472" type="curve" smooth="yes"/>
      <point x="67" y="202"/>
      <point x="266" y="-23"/>
    </contour>
    <contour>
      <point x="569" y="52" type="curve" smooth="yes"/>
      <point x="378" y="52"/>
      <point x="266" y="281"/>
      <point x="266" y="561" type="curve" smooth="yes"/>
      <point x="266" y="759"/>
      <point x="374" y="921"/>
      <point x="494" y="921" type="curve" smooth="yes"/>
      <point x="722" y="921"/>
      <point x="805" y="696"/>
      <point x="805" y="416" type="curve" smooth="yes"/>
      <point x="805" y="217"/>
      <point x="707" y="52"/>
    </contour>
    <contour>
      <point x="481" y="1113" type="curve"/>
      <point x="539" y="1113" type="line"/>
      <point x="539" y="1259"/>
      <point x="681" y="1307"/>
      <point x="681" y="1430" type="curve" smooth="yes"/>
      <point x="681" y="1506"/>
      <point x="612" y="1560"/>
      <point x="509" y="1560" type="curve" smooth="yes"/>
      <point x="418" y="1560"/>
      <point x="354" y="1516"/>
      <point x="354" y="1447" type="curve" smooth="yes"/>
      <point x="354" y="1409"/>
      <point x="382" y="1375"/>
      <point x="427" y="1375" type="curve" smooth="yes"/>
      <point x="458" y="1375"/>
      <point x="475" y="1396"/>
      <point x="475" y="1416" type="curve" smooth="yes"/>
      <point x="475" y="1440"/>
      <point x="441" y="1457"/>
      <point x="441" y="1480" type="curve" smooth="yes"/>
      <point x="441" y="1501"/>
      <point x="463" y="1519"/>
      <point x="501" y="1519" type="curve" smooth="yes"/>
      <point x="550" y="1519"/>
      <point x="585" y="1491"/>
      <point x="585" y="1425" type="curve" smooth="yes"/>
      <point x="585" y="1306"/>
      <point x="481" y="1245"/>
    </contour>
  </outline>
</glyph>
<glyph name="uni1EF6" format="2">
  <advance width="1468"/>
  <unicode hex="1EF6"/>
  <outline>
    <contour>
      <point x="-33" y="1437" type="line"/>
      <point x="-33" y="1400" type="line"/>
      <point x="75" y="1400"/>
      <point x="120" y="1329"/>
      <point x="183" y="1235" type="curve" smooth="yes"/>
      <point x="607" y="599" type="line"/>
      <point x="607" y="229" type="line" smooth="yes"/>
      <point x="607" y="75"/>
      <point x="551" y="37"/>
      <point x="404" y="37" type="curve"/>
      <point x="404" y="0" type="line"/>
      <point x="1029" y="0" type="line"/>
      <point x="1029" y="37" type="line"/>
      <point x="880" y="37"/>
      <point x="827" y="75"/>
      <point x="827" y="229" type="curve" smooth="yes"/>
      <point x="827" y="622" type="line"/>
      <point x="1202" y="1220" type="line" smooth="yes"/>
      <point x="1282" y="1347"/>
      <point x="1343" y="1400"/>
      <point x="1468" y="1400" type="curve"/>
      <point x="1468" y="1437" type="line"/>
      <point x="965" y="1437" type="line"/>
      <point x="965" y="1400" type="line"/>
      <point x="1067" y="1400"/>
      <point x="1115" y="1362"/>
      <point x="1115" y="1295" type="curve" smooth="yes"/>
      <point x="1115" y="1276"/>
      <point x="1108" y="1250"/>
      <point x="1093" y="1220" type="curve"/>
      <point x="771" y="700" type="line"/>
      <point x="460" y="1202" type="line"/>
      <point x="430" y="1243"/>
      <point x="420" y="1273"/>
      <point x="420" y="1299" type="curve" smooth="yes"/>
      <point x="420" y="1362"/>
      <point x="472" y="1400"/>
      <point x="591" y="1400" type="curve"/>
      <point x="591" y="1437" type="line"/>
    </contour>
    <contour>
      <point x="746" y="1561" type="curve"/>
      <point x="804" y="1561" type="line"/>
      <point x="804" y="1707"/>
      <point x="946" y="1755"/>
      <point x="946" y="1878" type="curve" smooth="yes"/>
      <point x="946" y="1954"/>
      <point x="877" y="2008"/>
      <point x="774" y="2008" type="curve" smooth="yes"/>
      <point x="683" y="2008"/>
      <point x="619" y="1964"/>
      <point x="619" y="1895" type="curve" smooth="yes"/>
      <point x="619" y="1857"/>
      <point x="647" y="1823"/>
      <point x="692" y="1823" type="curve" smooth="yes"/>
      <point x="723" y="1823"/>
      <point x="740" y="1844"/>
      <point x="740" y="1864" type="curve" smooth="yes"/>
      <point x="740" y="1888"/>
      <point x="706" y="1905"/>
      <point x="706" y="1928" type="curve" smooth="yes"/>
      <point x="706" y="1949"/>
      <point x="728" y="1967"/>
      <point x="766" y="1967" type="curve" smooth="yes"/>
      <point x="815" y="1967"/>
      <point x="850" y="1939"/>
      <point x="850" y="1873" type="curve" smooth="yes"/>
      <point x="850" y="1754"/>
      <point x="746" y="1693"/>
    </contour>
  </outline>
</glyph>
<glyph name="endash" format="2">
  <advance width="1024"/>
  <unicode hex="2013"/>
  <outline>
    <contour>
      <point x="994" y="500" type="line"/>
      <point x="994" y="580" type="line"/>
      <point x="30" y="580" type="line"/>
      <point x="30" y="500" type="line"/>
    </contour>
  </outline>
</glyph>
<glyph name="integral" format="2">
  <advance width="1004"/>
  <unicode hex="222B"/>
  <outline>
    <contour>
      <point x="565" y="-94" type="curve" smooth="yes"/>
      <point x="575" y="315"/>
      <point x="605" y="806"/>
      <point x="615" y="1216" type="curve" smooth="yes"/>
      <point x="617" y="1318"/>
      <point x="686" y="1400"/>
      <point x="761" y="1400" type="curve" smooth="yes"/>
      <point x="902" y="1400"/>
      <point x="861" y="1216"/>
      <point x="992" y="1216" type="curve" smooth="yes"/>
      <point x="1041" y="1216"/>
      <point x="1079" y="1243"/>
      <point x="1079" y="1299" type="curve" smooth="yes"/>
      <point x="1079" y="1418"/>
      <point x="944" y="1471"/>
      <point x="768" y="1471" type="curve" smooth="yes"/>
      <point x="584" y="1471"/>
      <point x="444" y="1314"/>
      <point x="439" y="1115" type="curve" smooth="yes"/>
      <point x="429" y="705"/>
      <point x="399" y="220"/>
      <point x="389" y="-195" type="curve" smooth="yes"/>
      <point x="387" y="-295"/>
      <point x="318" y="-378"/>
      <point x="243" y="-378" type="curve" smooth="yes"/>
      <point x="101" y="-378"/>
      <point x="142" y="-195"/>
      <point x="11" y="-195" type="curve" smooth="yes"/>
      <point x="-37" y="-195"/>
      <point x="-75" y="-221"/>
      <point x="-75" y="-277" type="curve" smooth="yes"/>
      <point x="-75" y="-397"/>
      <point x="60" y="-449"/>
      <point x="235" y="-449" type="curve" smooth="yes"/>
      <point x="420" y="-449"/>
      <point x="560" y="-292"/>
    </contour>
  </outline>
</glyph>
<glyph name=".notdef" format="2">
  <advance width="1347"/>
  <outline>
    <contour>
      <point x="1123" y="1437" type="line"/>
      <point x="299" y="1437" type="line"/>
      <point x="299" y="0" type="line"/>
      <point x="1123" y="0" type="line"/>
    </contour>
    <contour>
      <point x="449" y="1287" type="line"/>
      <point x="973" y="1287" type="line"/>
      <point x="973" y="150" type="line"/>
      <point x="449" y="150" type="line"/>
    </contour>
    <contour>
      <point x="666" y="385" type="curve" smooth="yes"/>
      <point x="666" y="366"/>
      <point x="685" y="345"/>
      <point x="707" y="345" type="curve" smooth="yes"/>
      <point x="726" y="345"/>
      <point x="745" y="366"/>
      <point x="745" y="385" type="curve" smooth="yes"/>
      <point x="745" y="408"/>
      <point x="726" y="426"/>
      <point x="707" y="426" type="curve" smooth="yes"/>
      <point x="685" y="426"/>
      <point x="666" y="408"/>
    </contour>
    <contour>
      <point x="603" y="909" type="curve" smooth="yes"/>
      <point x="603" y="936"/>
      <point x="622" y="969"/>
      <point x="707" y="969" type="curve" smooth="yes"/>
      <point x="794" y="969"/>
      <point x="827" y="913"/>
      <point x="827" y="876" type="curve" smooth="yes"/>
      <point x="827" y="805"/>
      <point x="651" y="644"/>
      <point x="651" y="535" type="curve" smooth="yes"/>
      <point x="651" y="505"/>
      <point x="655" y="487"/>
      <point x="666" y="472" type="curve"/>
      <point x="738" y="472" type="line"/>
      <point x="726" y="487"/>
      <point x="726" y="509"/>
      <point x="726" y="535" type="curve" smooth="yes"/>
      <point x="726" y="625"/>
      <point x="902" y="759"/>
      <point x="902" y="880" type="curve" smooth="yes"/>
      <point x="902" y="944"/>
      <point x="846" y="1040"/>
      <point x="707" y="1040" type="curve" smooth="yes"/>
      <point x="569" y="1040"/>
      <point x="528" y="950"/>
      <point x="528" y="894" type="curve" smooth="yes"/>
      <point x="528" y="850"/>
      <point x="539" y="819"/>
      <point x="561" y="797" type="curve" smooth="yes"/>
      <point x="576" y="782"/>
      <point x="603" y="775"/>
      <point x="628" y="775" type="curve" smooth="yes"/>
      <point x="659" y="775"/>
      <point x="696" y="794"/>
      <point x="696" y="831" type="curve" smooth="yes"/>
      <point x="696" y="857"/>
      <point x="678" y="880"/>
      <point x="651" y="880" type="curve" smooth="yes"/>
      <point x="636" y="880"/>
      <point x="622" y="876"/>
      <point x="614" y="865" type="curve"/>
      <point x="603" y="869"/>
      <point x="603" y="890"/>
    </contour>
  </outline>
</glyph>
<glyph name="hyphen.demo" format="2">
  <advance width="1380"/>
  <outline>
    <contour>
      <point x="420" y="700" type="line"/>
      <point x="420" y="573" type="line"/>
      <point x="1100" y="573" type="line"/>
      <point x="1100" y="700" type="line"/>
    </contour>
  </outline>
</glyph>
<glyph name="uni0020.showinv" format="2">
  <advance width="1455"/>
  <outline>
    <contour>
      <point x="0" y="-75" type="line"/>
      <point x="1455" y="-75" type="line"/>
      <point x="1455" y="187" type="line"/>
      <point x="1381" y="187" type="line"/>
      <point x="1381" y="0" type="line"/>
      <point x="75" y="0" type="line"/>
      <point x="75" y="187" type="line"/>
      <point x="0" y="187" type="line"/>
    </contour>
  </outline>
</glyph>
<glyph name="uni0306.high" format="2">
  <outline>
    <contour>
      <point x="-532" y="1798" type="line"/>
      <point x="-554" y="1742"/>
      <point x="-659" y="1657"/>
      <point x="-809" y="1657" type="curve" smooth="yes"/>
      <point x="-958" y="1657"/>
      <point x="-1064" y="1742"/>
      <point x="-1086" y="1798" type="curve"/>
      <point x="-1124" y="1798" type="line"/>
      <point x="-1105" y="1704"/>
      <point x="-1014" y="1530"/>
      <point x="-809" y="1530" type="curve" smooth="yes"/>
      <point x="-603" y="1530"/>
      <point x="-517" y="1704"/>
      <point x="-498" y="1798" type="curve"/>
    </contour>
  </outline>
</glyph>
<glyph name="uni178817C5.right" format="2">
  <advance width="3256"/>
  <anchor x="2283" y="0" name="L"/>
  <anchor x="3011" y="0" name="L2"/>
  <anchor x="2283" y="1440" name="U"/>
  <anchor x="3011" y="1922" name="U2"/>
  <anchor x="1289" y="0" name="lm"/>
  <anchor x="1889" y="1440" name="um"/>
  <anchor x="2553" y="1922" name="um2"/>
  <outline>
    <contour>
      <point x="2283" y="187" type="curve"/>
      <point x="2283" y="980" type="line" smooth="yes"/>
      <point x="2283" y="1024"/>
      <point x="2218" y="1054"/>
      <point x="2140" y="1091" type="curve" smooth="yes"/>
      <point x="2092" y="1114"/>
      <point x="2046" y="1138"/>
      <point x="2046" y="1193" type="curve" smooth="yes"/>
      <point x="2046" y="1222"/>
      <point x="2079" y="1328"/>
      <point x="2423" y="1328" type="curve" smooth="yes"/>
      <point x="2698" y="1328"/>
      <point x="2823" y="1208"/>
      <point x="2823" y="1145" type="curve" smooth="yes"/>
      <point x="2823" y="0" type="line"/>
      <point x="3011" y="0" type="line"/>
      <point x="3011" y="1163" type="line" smooth="yes"/>
      <point x="3011" y="1200"/>
      <point x="2977" y="1249"/>
      <point x="2917" y="1294" type="curve"/>
      <point x="2981" y="1395"/>
      <point x="3011" y="1508"/>
      <point x="3011" y="1610" type="curve" smooth="yes"/>
      <point x="3011" y="1704"/>
      <point x="2982" y="1800"/>
      <point x="2870" y="1894" type="curve" smooth="yes"/>
      <point x="2847" y="1913"/>
      <point x="2810" y="1922"/>
      <point x="2786" y="1922" type="curve" smooth="yes"/>
      <point x="2728" y="1922"/>
      <point x="2678" y="1898"/>
      <point x="2678" y="1834" type="curve" smooth="yes"/>
      <point x="2678" y="1794"/>
      <point x="2689" y="1772"/>
      <point x="2724" y="1740" type="curve"/>
      <point x="2792" y="1689"/>
      <point x="2811" y="1614"/>
      <point x="2811" y="1538" type="curve" smooth="yes"/>
      <point x="2811" y="1476"/>
      <point x="2792" y="1405"/>
      <point x="2775" y="1374" type="curve"/>
      <point x="2682" y="1413"/>
      <point x="2568" y="1440"/>
      <point x="2441" y="1440" type="curve" smooth="yes"/>
      <point x="2082" y="1440"/>
      <point x="1923" y="1326"/>
      <point x="1923" y="1189" type="curve" smooth="yes"/>
      <point x="1923" y="1118"/>
      <point x="1944" y="1063"/>
      <point x="2027" y="1016" type="curve"/>
      <point x="2059" y="1002"/>
      <point x="2095" y="980"/>
      <point x="2095" y="923" type="curve" smooth="yes"/>
      <point x="2095" y="194" type="line" smooth="yes"/>
      <point x="2095" y="139"/>
      <point x="1975" y="112"/>
      <point x="1889" y="112" type="curve" smooth="yes"/>
      <point x="1803" y="112"/>
      <point x="1683" y="139"/>
      <point x="1683" y="194" type="curve" smooth="yes"/>
      <point x="1683" y="980" type="line" smooth="yes"/>
      <point x="1683" y="1024"/>
      <point x="1620" y="1054"/>
      <point x="1541" y="1092" type="curve" smooth="yes"/>
      <point x="1493" y="1115"/>
      <point x="1445" y="1138"/>
      <point x="1445" y="1193" type="curve" smooth="yes"/>
      <point x="1445" y="1242"/>
      <point x="1473" y="1282"/>
      <point x="1509" y="1282" type="curve" smooth="yes"/>
      <point x="1520" y="1282"/>
      <point x="1541" y="1276"/>
      <point x="1571" y="1253" type="curve" smooth="yes"/>
      <point x="1599" y="1231"/>
      <point x="1638" y="1204"/>
      <point x="1702" y="1204" type="curve" smooth="yes"/>
      <point x="1799" y="1204"/>
      <point x="1852" y="1257"/>
      <point x="1856" y="1374" type="curve"/>
      <point x="1833" y="1354"/>
      <point x="1810" y="1346"/>
      <point x="1795" y="1346" type="curve" smooth="yes"/>
      <point x="1754" y="1346"/>
      <point x="1713" y="1370"/>
      <point x="1675" y="1396" type="curve" smooth="yes"/>
      <point x="1641" y="1418"/>
      <point x="1607" y="1440"/>
      <point x="1559" y="1440" type="curve" smooth="yes"/>
      <point x="1445" y="1440"/>
      <point x="1322" y="1306"/>
      <point x="1322" y="1189" type="curve" smooth="yes"/>
      <point x="1322" y="1118"/>
      <point x="1345" y="1063"/>
      <point x="1427" y="1016" type="curve"/>
      <point x="1462" y="1002"/>
      <point x="1495" y="980"/>
      <point x="1495" y="923" type="curve" smooth="yes"/>
      <point x="1495" y="194" type="line" smooth="yes"/>
      <point x="1495" y="139"/>
      <point x="1375" y="112"/>
      <point x="1289" y="112" type="curve" smooth="yes"/>
      <point x="1203" y="112"/>
      <point x="1083" y="139"/>
      <point x="1083" y="194" type="curve" smooth="yes"/>
      <point x="1083" y="1253" type="line" smooth="yes"/>
      <point x="1083" y="1353"/>
      <point x="885" y="1440"/>
      <point x="689" y="1440" type="curve" smooth="yes"/>
      <point x="493" y="1440"/>
      <point x="295" y="1353"/>
      <point x="295" y="1253" type="curve" smooth="yes"/>
      <point x="295" y="79" type="line"/>
      <point x="320" y="16"/>
      <point x="401" y="0"/>
      <point x="466" y="0" type="curve"/>
      <point x="632" y="31"/>
      <point x="710" y="169"/>
      <point x="710" y="248" type="curve" smooth="yes"/>
      <point x="710" y="376"/>
      <point x="610" y="444"/>
      <point x="483" y="451" type="curve"/>
      <point x="483" y="1246" type="line" smooth="yes"/>
      <point x="483" y="1301"/>
      <point x="603" y="1328"/>
      <point x="689" y="1328" type="curve" smooth="yes"/>
      <point x="775" y="1328"/>
      <point x="895" y="1301"/>
      <point x="895" y="1246" type="curve" smooth="yes"/>
      <point x="895" y="187" type="line" smooth="yes"/>
      <point x="895" y="87"/>
      <point x="1093" y="0"/>
      <point x="1289" y="0" type="curve" smooth="yes"/>
      <point x="1398" y="0"/>
      <point x="1510" y="26"/>
      <point x="1589" y="68" type="curve"/>
      <point x="1664" y="26"/>
      <point x="1778" y="0"/>
      <point x="1889" y="0" type="curve" smooth="yes"/>
      <point x="2085" y="0"/>
      <point x="2283" y="87"/>
    </contour>
    <contour>
      <point x="588" y="257" type="curve" smooth="yes"/>
      <point x="588" y="196"/>
      <point x="534" y="159"/>
      <point x="483" y="137" type="curve"/>
      <point x="483" y="345" type="line"/>
      <point x="531" y="338"/>
      <point x="588" y="307"/>
    </contour>
  </outline>
</glyph>
<glyph name="uni179217B6" format="2">
  <advance width="2204"/>
  <anchor x="1231" y="0" name="L"/>
  <anchor x="1959" y="0" name="L2"/>
  <anchor x="1231" y="1440" name="U"/>
  <anchor x="1959" y="1440" name="U2"/>
  <anchor x="763" y="0" name="lm"/>
  <anchor x="763" y="1440" name="um"/>
  <anchor x="1501" y="1440" name="um2"/>
  <outline>
    <contour>
      <point x="295" y="980" type="curve"/>
      <point x="295" y="68" type="line" smooth="yes"/>
      <point x="295" y="33"/>
      <point x="338" y="0"/>
      <point x="382" y="0" type="curve" smooth="yes"/>
      <point x="463" y="0" type="line" smooth="yes"/>
      <point x="516" y="0"/>
      <point x="581" y="46"/>
      <point x="613" y="72" type="curve" smooth="yes"/>
      <point x="683" y="128"/>
      <point x="737" y="168"/>
      <point x="763" y="168" type="curve" smooth="yes"/>
      <point x="789" y="168"/>
      <point x="843" y="128"/>
      <point x="913" y="72" type="curve" smooth="yes"/>
      <point x="945" y="46"/>
      <point x="1010" y="0"/>
      <point x="1063" y="0" type="curve" smooth="yes"/>
      <point x="1144" y="0" type="line" smooth="yes"/>
      <point x="1186" y="0"/>
      <point x="1231" y="33"/>
      <point x="1231" y="68" type="curve" smooth="yes"/>
      <point x="1231" y="817" type="line"/>
      <point x="1206" y="880"/>
      <point x="1125" y="896"/>
      <point x="1060" y="896" type="curve"/>
      <point x="894" y="865"/>
      <point x="816" y="727"/>
      <point x="816" y="648" type="curve" smooth="yes"/>
      <point x="816" y="520"/>
      <point x="916" y="452"/>
      <point x="1043" y="445" type="curve"/>
      <point x="1043" y="215" type="line" smooth="yes"/>
      <point x="1043" y="172"/>
      <point x="1038" y="150"/>
      <point x="1014" y="150" type="curve" smooth="yes"/>
      <point x="1003" y="150"/>
      <point x="944" y="191"/>
      <point x="873" y="247" type="curve" smooth="yes"/>
      <point x="837" y="275"/>
      <point x="799" y="300"/>
      <point x="763" y="300" type="curve" smooth="yes"/>
      <point x="727" y="300"/>
      <point x="689" y="275"/>
      <point x="653" y="247" type="curve" smooth="yes"/>
      <point x="582" y="191"/>
      <point x="523" y="150"/>
      <point x="512" y="150" type="curve" smooth="yes"/>
      <point x="488" y="150"/>
      <point x="483" y="172"/>
      <point x="483" y="215" type="curve" smooth="yes"/>
      <point x="483" y="1000" type="line"/>
      <point x="401" y="1012"/>
      <point x="299" y="1055"/>
      <point x="299" y="1125" type="curve" smooth="yes"/>
      <point x="299" y="1231"/>
      <point x="423" y="1286"/>
      <point x="547" y="1286" type="curve" smooth="yes"/>
      <point x="785" y="1286"/>
      <point x="924" y="1225"/>
      <point x="1043" y="1148" type="curve"/>
      <point x="1107" y="1209"/>
      <point x="1219" y="1312"/>
      <point x="1414" y="1312" type="curve" smooth="yes"/>
      <point x="1649" y="1312"/>
      <point x="1771" y="1208"/>
      <point x="1771" y="1145" type="curve" smooth="yes"/>
      <point x="1771" y="0" type="line"/>
      <point x="1959" y="0" type="line"/>
      <point x="1959" y="1163" type="line" smooth="yes"/>
      <point x="1959" y="1264"/>
      <point x="1733" y="1440"/>
      <point x="1418" y="1440" type="curve" smooth="yes"/>
      <point x="1250" y="1440"/>
      <point x="1118" y="1354"/>
      <point x="1043" y="1282" type="curve"/>
      <point x="901" y="1377"/>
      <point x="777" y="1440"/>
      <point x="515" y="1440" type="curve" smooth="yes"/>
      <point x="316" y="1440"/>
      <point x="162" y="1319"/>
      <point x="162" y="1179" type="curve" smooth="yes"/>
      <point x="162" y="1067"/>
      <point x="221" y="1009"/>
    </contour>
    <contour>
      <point x="938" y="639" type="curve" smooth="yes"/>
      <point x="938" y="700"/>
      <point x="992" y="737"/>
      <point x="1043" y="759" type="curve"/>
      <point x="1043" y="551" type="line"/>
      <point x="995" y="558"/>
      <point x="938" y="589"/>
    </contour>
  </outline>
</glyph>
<glyph name="uni179317C5.right" format="2">
  <advance width="2204"/>
  <anchor x="1231" y="0" name="L"/>
  <anchor x="1959" y="0" name="L2"/>
  <anchor x="1231" y="1440" name="U"/>
  <anchor x="1959" y="1922" name="U2"/>
  <anchor x="763" y="0" name="lm"/>
  <anchor x="763" y="1440" name="um"/>
  <anchor x="1501" y="1922" name="um2"/>
  <outline>
    <contour>
      <point x="1048" y="1067" type="curve"/>
      <point x="1021" y="1090"/>
      <point x="992" y="1104"/>
      <point x="946" y="1104" type="curve" smooth="yes"/>
      <point x="878" y="1104"/>
      <point x="827" y="1069"/>
      <point x="827" y="1010" type="curve" smooth="yes"/>
      <point x="827" y="931"/>
      <point x="912" y="878"/>
      <point x="991" y="878" type="curve" smooth="yes"/>
      <point x="1028" y="878"/>
      <point x="1092" y="891"/>
      <point x="1135" y="921" type="curve" smooth="yes"/>
      <point x="1190" y="961"/>
      <point x="1230" y="1022"/>
      <point x="1230" y="1125" type="curve" smooth="yes"/>
      <point x="1230" y="1342"/>
      <point x="1014" y="1440"/>
      <point x="817" y="1440" type="curve"/>
      <point x="505" y="1440"/>
      <point x="295" y="1310"/>
      <point x="295" y="1059" type="curve"/>
      <point x="295" y="741"/>
      <point x="639" y="635"/>
      <point x="889" y="551" type="curve" smooth="yes"/>
      <point x="950" y="531"/>
      <point x="1043" y="488"/>
      <point x="1043" y="454" type="curve"/>
      <point x="1043" y="150" type="line"/>
      <point x="905" y="153"/>
      <point x="625" y="215"/>
      <point x="483" y="358" type="curve"/>
      <point x="483" y="612" type="line"/>
      <point x="295" y="612" type="line"/>
      <point x="295" y="0" type="line"/>
      <point x="483" y="0" type="line"/>
      <point x="483" y="200" type="line"/>
      <point x="589" y="128"/>
      <point x="878" y="0"/>
      <point x="1063" y="0" type="curve"/>
      <point x="1144" y="0" type="line"/>
      <point x="1185" y="0"/>
      <point x="1231" y="33"/>
      <point x="1231" y="68" type="curve"/>
      <point x="1231" y="533" type="line"/>
      <point x="1231" y="577"/>
      <point x="1139" y="613"/>
      <point x="1052" y="640" type="curve"/>
      <point x="831" y="710"/>
      <point x="463" y="820"/>
      <point x="463" y="1039" type="curve"/>
      <point x="463" y="1223"/>
      <point x="599" y="1310"/>
      <point x="797" y="1310" type="curve"/>
      <point x="969" y="1310"/>
      <point x="1062" y="1238"/>
      <point x="1062" y="1148" type="curve"/>
      <point x="1062" y="1110"/>
      <point x="1058" y="1084"/>
    </contour>
    <contour>
      <point x="1209" y="1233" type="line"/>
      <point x="1262" y="1280"/>
      <point x="1399" y="1328"/>
      <point x="1546" y="1328" type="curve" smooth="yes"/>
      <point x="1693" y="1328"/>
      <point x="1771" y="1208"/>
      <point x="1771" y="1145" type="curve" smooth="yes"/>
      <point x="1771" y="0" type="line"/>
      <point x="1959" y="0" type="line"/>
      <point x="1959" y="1163" type="line" smooth="yes"/>
      <point x="1959" y="1205"/>
      <point x="1928" y="1260"/>
      <point x="1875" y="1310" type="curve"/>
      <point x="1932" y="1407"/>
      <point x="1959" y="1513"/>
      <point x="1959" y="1610" type="curve" smooth="yes"/>
      <point x="1959" y="1704"/>
      <point x="1930" y="1800"/>
      <point x="1818" y="1894" type="curve" smooth="yes"/>
      <point x="1795" y="1913"/>
      <point x="1758" y="1922"/>
      <point x="1734" y="1922" type="curve" smooth="yes"/>
      <point x="1676" y="1922"/>
      <point x="1626" y="1898"/>
      <point x="1626" y="1834" type="curve" smooth="yes"/>
      <point x="1626" y="1794"/>
      <point x="1637" y="1772"/>
      <point x="1672" y="1740" type="curve"/>
      <point x="1740" y="1689"/>
      <point x="1759" y="1614"/>
      <point x="1759" y="1538" type="curve" smooth="yes"/>
      <point x="1759" y="1490"/>
      <point x="1747" y="1437"/>
      <point x="1734" y="1401" type="curve"/>
      <point x="1678" y="1425"/>
      <point x="1614" y="1440"/>
      <point x="1546" y="1440" type="curve" smooth="yes"/>
      <point x="1371" y="1440"/>
      <point x="1212" y="1360"/>
      <point x="1155" y="1304" type="curve"/>
    </contour>
  </outline>
</glyph>
<glyph name="uni1794.lig.left" format="2">
  <advance width="1476"/>
  <anchor x="1231" y="-150" name="L"/>
  <anchor x="1231" y="1440" name="U"/>
  <anchor x="763" y="0" name="lm"/>
  <anchor x="763" y="1440" name="um"/>
  <outline>
    <contour>
      <point x="1043" y="912" type="line"/>
      <point x="1043" y="207" type="line" smooth="yes"/>
      <point x="1043" y="143"/>
      <point x="841" y="112"/>
      <point x="763" y="112" type="curve" smooth="yes"/>
      <point x="685" y="112"/>
      <point x="483" y="143"/>
      <point x="483" y="207" type="curve" smooth="yes"/>
      <point x="483" y="1000" type="line"/>
      <point x="401" y="1012"/>
      <point x="299" y="1055"/>
      <point x="299" y="1125" type="curve" smooth="yes"/>
      <point x="299" y="1231"/>
      <point x="423" y="1286"/>
      <point x="547" y="1286" type="curve" smooth="yes"/>
      <point x="785" y="1286"/>
      <point x="924" y="1225"/>
      <point x="1043" y="1148" type="curve"/>
      <point x="1107" y="1209"/>
      <point x="1219" y="1312"/>
      <point x="1414" y="1312" type="curve" smooth="yes"/>
      <point x="1436" y="1312"/>
      <point x="1456" y="1311"/>
      <point x="1476" y="1309" type="curve"/>
      <point x="1476" y="1438" type="line"/>
      <point x="1457" y="1439"/>
      <point x="1438" y="1440"/>
      <point x="1418" y="1440" type="curve" smooth="yes"/>
      <point x="1250" y="1440"/>
      <point x="1118" y="1354"/>
      <point x="1043" y="1282" type="curve"/>
      <point x="901" y="1377"/>
      <point x="777" y="1440"/>
      <point x="515" y="1440" type="curve" smooth="yes"/>
      <point x="316" y="1440"/>
      <point x="162" y="1319"/>
      <point x="162" y="1179" type="curve" smooth="yes"/>
      <point x="162" y="1067"/>
      <point x="221" y="1009"/>
      <point x="295" y="980" type="curve"/>
      <point x="295" y="187" type="line" smooth="yes"/>
      <point x="295" y="86"/>
      <point x="567" y="0"/>
      <point x="763" y="0" type="curve" smooth="yes"/>
      <point x="858" y="0"/>
      <point x="977" y="24"/>
      <point x="1043" y="46" type="curve"/>
      <point x="1043" y="-151" type="line"/>
      <point x="1231" y="-151" type="line"/>
      <point x="1231" y="912" type="line"/>
    </contour>
  </outline>
</glyph>
<glyph name="uni179917C5.right" format="2">
  <advance width="2736"/>
  <anchor x="1763" y="0" name="L"/>
  <anchor x="2491" y="0" name="L2"/>
  <anchor x="1763" y="1440" name="U"/>
  <anchor x="2491" y="1922" name="U2"/>
  <anchor x="1024" y="0" name="lm"/>
  <anchor x="1369" y="1440" name="um"/>
  <anchor x="2033" y="1922" name="um2"/>
  <outline>
    <contour>
      <point x="1575" y="923" type="curve"/>
      <point x="1575" y="194" type="line" smooth="yes"/>
      <point x="1575" y="139"/>
      <point x="1455" y="112"/>
      <point x="1369" y="112" type="curve" smooth="yes"/>
      <point x="1283" y="112"/>
      <point x="1163" y="139"/>
      <point x="1163" y="194" type="curve" smooth="yes"/>
      <point x="1163" y="980" type="line" smooth="yes"/>
      <point x="1163" y="1024"/>
      <point x="1100" y="1054"/>
      <point x="1021" y="1092" type="curve" smooth="yes"/>
      <point x="973" y="1115"/>
      <point x="925" y="1138"/>
      <point x="925" y="1193" type="curve" smooth="yes"/>
      <point x="925" y="1242"/>
      <point x="953" y="1282"/>
      <point x="989" y="1282" type="curve" smooth="yes"/>
      <point x="1000" y="1282"/>
      <point x="1021" y="1276"/>
      <point x="1051" y="1253" type="curve" smooth="yes"/>
      <point x="1079" y="1231"/>
      <point x="1118" y="1204"/>
      <point x="1182" y="1204" type="curve" smooth="yes"/>
      <point x="1279" y="1204"/>
      <point x="1332" y="1257"/>
      <point x="1336" y="1374" type="curve"/>
      <point x="1313" y="1354"/>
      <point x="1290" y="1346"/>
      <point x="1275" y="1346" type="curve" smooth="yes"/>
      <point x="1234" y="1346"/>
      <point x="1193" y="1370"/>
      <point x="1155" y="1396" type="curve" smooth="yes"/>
      <point x="1121" y="1418"/>
      <point x="1087" y="1440"/>
      <point x="1039" y="1440" type="curve" smooth="yes"/>
      <point x="925" y="1440"/>
      <point x="802" y="1306"/>
      <point x="802" y="1189" type="curve" smooth="yes"/>
      <point x="802" y="1118"/>
      <point x="825" y="1063"/>
      <point x="907" y="1016" type="curve"/>
      <point x="942" y="1002"/>
      <point x="975" y="980"/>
      <point x="975" y="923" type="curve" smooth="yes"/>
      <point x="975" y="194" type="line" smooth="yes"/>
      <point x="975" y="139"/>
      <point x="815" y="112"/>
      <point x="729" y="112" type="curve" smooth="yes"/>
      <point x="643" y="112"/>
      <point x="483" y="139"/>
      <point x="483" y="194" type="curve" smooth="yes"/>
      <point x="483" y="989" type="line"/>
      <point x="610" y="996"/>
      <point x="710" y="1064"/>
      <point x="710" y="1192" type="curve" smooth="yes"/>
      <point x="710" y="1271"/>
      <point x="632" y="1409"/>
      <point x="466" y="1440" type="curve"/>
      <point x="401" y="1440"/>
      <point x="320" y="1424"/>
      <point x="295" y="1361" type="curve"/>
      <point x="295" y="187" type="line" smooth="yes"/>
      <point x="295" y="87"/>
      <point x="533" y="0"/>
      <point x="729" y="0" type="curve" smooth="yes"/>
      <point x="842" y="0"/>
      <point x="975" y="26"/>
      <point x="1063" y="72" type="curve"/>
      <point x="1138" y="26"/>
      <point x="1252" y="0"/>
      <point x="1369" y="0" type="curve" smooth="yes"/>
      <point x="1565" y="0"/>
      <point x="1763" y="87"/>
      <point x="1763" y="187" type="curve" smooth="yes"/>
      <point x="1763" y="980" type="line" smooth="yes"/>
      <point x="1763" y="1024"/>
      <point x="1698" y="1054"/>
      <point x="1620" y="1091" type="curve" smooth="yes"/>
      <point x="1572" y="1114"/>
      <point x="1526" y="1138"/>
      <point x="1526" y="1193" type="curve" smooth="yes"/>
      <point x="1526" y="1222"/>
      <point x="1559" y="1328"/>
      <point x="1903" y="1328" type="curve" smooth="yes"/>
      <point x="2178" y="1328"/>
      <point x="2303" y="1208"/>
      <point x="2303" y="1145" type="curve" smooth="yes"/>
      <point x="2303" y="0" type="line"/>
      <point x="2491" y="0" type="line"/>
      <point x="2491" y="1163" type="line" smooth="yes"/>
      <point x="2491" y="1200"/>
      <point x="2457" y="1249"/>
      <point x="2397" y="1294" type="curve"/>
      <point x="2461" y="1395"/>
      <point x="2491" y="1508"/>
      <point x="2491" y="1610" type="curve" smooth="yes"/>
      <point x="2491" y="1704"/>
      <point x="2462" y="1800"/>
      <point x="2350" y="1894" type="curve" smooth="yes"/>
      <point x="2327" y="1913"/>
      <point x="2290" y="1922"/>
      <point x="2266" y="1922" type="curve" smooth="yes"/>
      <point x="2208" y="1922"/>
      <point x="2158" y="1898"/>
      <point x="2158" y="1834" type="curve" smooth="yes"/>
      <point x="2158" y="1794"/>
      <point x="2169" y="1772"/>
      <point x="2204" y="1740" type="curve"/>
      <point x="2272" y="1689"/>
      <point x="2291" y="1614"/>
      <point x="2291" y="1538" type="curve" smooth="yes"/>
      <point x="2291" y="1476"/>
      <point x="2272" y="1405"/>
      <point x="2255" y="1374" type="curve"/>
      <point x="2162" y="1413"/>
      <point x="2048" y="1440"/>
      <point x="1921" y="1440" type="curve" smooth="yes"/>
      <point x="1562" y="1440"/>
      <point x="1403" y="1326"/>
      <point x="1403" y="1189" type="curve" smooth="yes"/>
      <point x="1403" y="1118"/>
      <point x="1424" y="1063"/>
      <point x="1507" y="1016" type="curve"/>
      <point x="1539" y="1002"/>
      <point x="1575" y="980"/>
    </contour>
    <contour>
      <point x="588" y="1183" type="curve" smooth="yes"/>
      <point x="588" y="1133"/>
      <point x="531" y="1102"/>
      <point x="483" y="1095" type="curve"/>
      <point x="483" y="1303" type="line"/>
      <point x="534" y="1281"/>
      <point x="588" y="1244"/>
    </contour>
  </outline>
</glyph>
<glyph name="uni17B6.lig.right" format="2">
  <advance width="728"/>
  <anchor x="483" y="0" name="L2"/>
  <anchor x="483" y="1440" name="U2"/>
  <anchor x="25" y="1440" name="um2"/>
  <outline>
    <contour>
      <point x="0" y="1309" type="line"/>
      <point x="194" y="1293"/>
      <point x="295" y="1202"/>
      <point x="295" y="1145" type="curve" smooth="yes"/>
      <point x="295" y="0" type="line"/>
      <point x="483" y="0" type="line"/>
      <point x="483" y="1163" type="line" smooth="yes"/>
      <point x="483" y="1258"/>
      <point x="285" y="1418"/>
      <point x="0" y="1438" type="curve"/>
    </contour>
  </outline>
</glyph>
<glyph name="uni17B717CD.ms.narrowhigh" format="2">
  <outline>
    <contour>
      <point x="-474" y="1968" type="curve" smooth="yes"/>
      <point x="-288" y="1968"/>
      <point x="-233" y="1880"/>
      <point x="-87" y="1880" type="curve" smooth="yes"/>
      <point x="-28" y="1880"/>
      <point x="0" y="1919"/>
      <point x="0" y="1959" type="curve" smooth="yes"/>
      <point x="0" y="1983"/>
      <point x="-7" y="1994"/>
      <point x="-11" y="2005" type="curve"/>
      <point x="-59" y="2086"/>
      <point x="-111" y="2161"/>
      <point x="-170" y="2221" type="curve"/>
      <point x="-80" y="2222"/>
      <point x="-11" y="2297"/>
      <point x="-11" y="2360" type="curve" smooth="yes"/>
      <point x="-11" y="2386"/>
      <point x="-33" y="2408"/>
      <point x="-66" y="2408" type="curve" smooth="yes"/>
      <point x="-96" y="2408"/>
      <point x="-113" y="2393"/>
      <point x="-121" y="2367" type="curve"/>
      <point x="-124" y="2349"/>
      <point x="-147" y="2329"/>
      <point x="-172" y="2329" type="curve" smooth="yes"/>
      <point x="-202" y="2329"/>
      <point x="-228" y="2356"/>
      <point x="-228" y="2386" type="curve" smooth="yes"/>
      <point x="-228" y="2415"/>
      <point x="-202" y="2459"/>
      <point x="-139" y="2470" type="curve"/>
      <point x="-7" y="2484"/>
      <point x="73" y="2547"/>
      <point x="73" y="2661" type="curve" smooth="yes"/>
      <point x="73" y="2723"/>
      <point x="36" y="2793"/>
      <point x="-81" y="2804" type="curve"/>
      <point x="-44" y="2774"/>
      <point x="-23" y="2734"/>
      <point x="-23" y="2686" type="curve" smooth="yes"/>
      <point x="-23" y="2623"/>
      <point x="-70" y="2587"/>
      <point x="-154" y="2576" type="curve" smooth="yes"/>
      <point x="-290" y="2557"/>
      <point x="-337" y="2455"/>
      <point x="-337" y="2386" type="curve" smooth="yes"/>
      <point x="-337" y="2365"/>
      <point x="-333" y="2345"/>
      <point x="-326" y="2326" type="curve"/>
      <point x="-368" y="2343"/>
      <point x="-413" y="2352"/>
      <point x="-463" y="2352" type="curve" smooth="yes"/>
      <point x="-668" y="2352"/>
      <point x="-768" y="2226"/>
      <point x="-768" y="2094" type="curve" smooth="yes"/>
      <point x="-768" y="2009"/>
      <point x="-707" y="1956"/>
      <point x="-618" y="1956" type="curve" smooth="yes"/>
      <point x="-556" y="1956"/>
      <point x="-534" y="1968"/>
    </contour>
    <contour>
      <point x="-445" y="2098" type="curve" smooth="yes"/>
      <point x="-487" y="2098"/>
      <point x="-496" y="2090"/>
      <point x="-535" y="2090" type="curve" smooth="yes"/>
      <point x="-559" y="2090"/>
      <point x="-580" y="2111"/>
      <point x="-580" y="2139" type="curve"/>
      <point x="-580" y="2196"/>
      <point x="-523" y="2222"/>
      <point x="-463" y="2222" type="curve"/>
      <point x="-360" y="2222"/>
      <point x="-281" y="2118"/>
      <point x="-223" y="2039" type="curve"/>
      <point x="-283" y="2071"/>
      <point x="-331" y="2098"/>
    </contour>
  </outline>
</glyph>
<glyph name="uni17B8.narrow" format="2">
  <anchor x="-245" y="2191" name="U"/>
  <anchor x="-245" y="1440" name="_U"/>
  <anchor x="-384" y="2016" name="um"/>
  <outline>
    <contour>
      <point x="-12" y="1626" type="curve" smooth="yes"/>
      <point x="41" y="1715"/>
      <point x="81" y="1833"/>
      <point x="81" y="1971" type="curve" smooth="yes"/>
      <point x="81" y="2089"/>
      <point x="19" y="2191"/>
      <point x="-79" y="2191" type="curve" smooth="yes"/>
      <point x="-126" y="2191"/>
      <point x="-165" y="2157"/>
      <point x="-165" y="2113" type="curve" smooth="yes"/>
      <point x="-165" y="2071"/>
      <point x="-153" y="2051"/>
      <point x="-123" y="2023" type="curve" smooth="yes"/>
      <point x="-90" y="1992"/>
      <point x="-79" y="1960"/>
      <point x="-79" y="1883" type="curve" smooth="yes"/>
      <point x="-79" y="1866"/>
      <point x="-80" y="1847"/>
      <point x="-83" y="1827" type="curve"/>
      <point x="-181" y="1963"/>
      <point x="-298" y="2062"/>
      <point x="-463" y="2062" type="curve" smooth="yes"/>
      <point x="-668" y="2062"/>
      <point x="-768" y="1936"/>
      <point x="-768" y="1804" type="curve" smooth="yes"/>
      <point x="-768" y="1719"/>
      <point x="-707" y="1666"/>
      <point x="-618" y="1666" type="curve" smooth="yes"/>
      <point x="-556" y="1666"/>
      <point x="-534" y="1678"/>
      <point x="-474" y="1678" type="curve" smooth="yes"/>
      <point x="-288" y="1678"/>
      <point x="-233" y="1590"/>
      <point x="-87" y="1590" type="curve" smooth="yes"/>
      <point x="-50" y="1590"/>
      <point x="-25" y="1605"/>
    </contour>
    <contour>
      <point x="-445" y="1808" type="curve" smooth="yes"/>
      <point x="-487" y="1808"/>
      <point x="-496" y="1800"/>
      <point x="-535" y="1800" type="curve" smooth="yes"/>
      <point x="-559" y="1800"/>
      <point x="-580" y="1821"/>
      <point x="-580" y="1849" type="curve"/>
      <point x="-580" y="1906"/>
      <point x="-523" y="1932"/>
      <point x="-463" y="1932" type="curve"/>
      <point x="-360" y="1932"/>
      <point x="-281" y="1828"/>
      <point x="-223" y="1749" type="curve"/>
      <point x="-283" y="1781"/>
      <point x="-331" y="1808"/>
    </contour>
  </outline>
</glyph>
<glyph name="uni17BA.ms.high2" format="2">
  <outline>
    <contour>
      <point x="-838" y="2199" type="curve" smooth="yes"/>
      <point x="-694" y="2199"/>
      <point x="-568" y="2171"/>
      <point x="-466" y="2146" type="curve" smooth="yes"/>
      <point x="-391" y="2127"/>
      <point x="-332" y="2110"/>
      <point x="-276" y="2110" type="curve" smooth="yes"/>
      <point x="-246" y="2110"/>
      <point x="-225" y="2122"/>
      <point x="-202" y="2144" type="curve" smooth="yes"/>
      <point x="-111" y="2233"/>
      <point x="-36" y="2370"/>
      <point x="-36" y="2516" type="curve" smooth="yes"/>
      <point x="-36" y="2613"/>
      <point x="-87" y="2706"/>
      <point x="-179" y="2706" type="curve" smooth="yes"/>
      <point x="-232" y="2706"/>
      <point x="-262" y="2666"/>
      <point x="-262" y="2616" type="curve" smooth="yes"/>
      <point x="-262" y="2591"/>
      <point x="-252" y="2572"/>
      <point x="-234" y="2547" type="curve" smooth="yes"/>
      <point x="-217" y="2524"/>
      <point x="-208" y="2502"/>
      <point x="-208" y="2470" type="curve" smooth="yes"/>
      <point x="-208" y="2416"/>
      <point x="-223" y="2359"/>
      <point x="-251" y="2297" type="curve"/>
      <point x="-285" y="2338"/>
      <point x="-326" y="2377"/>
      <point x="-371" y="2412" type="curve"/>
      <point x="-347" y="2470"/>
      <point x="-332" y="2535"/>
      <point x="-332" y="2600" type="curve" smooth="yes"/>
      <point x="-332" y="2697"/>
      <point x="-382" y="2790"/>
      <point x="-475" y="2790" type="curve" smooth="yes"/>
      <point x="-528" y="2790"/>
      <point x="-557" y="2749"/>
      <point x="-557" y="2700" type="curve" smooth="yes"/>
      <point x="-557" y="2674"/>
      <point x="-548" y="2656"/>
      <point x="-530" y="2631" type="curve" smooth="yes"/>
      <point x="-512" y="2607"/>
      <point x="-504" y="2586"/>
      <point x="-504" y="2553" type="curve" smooth="yes"/>
      <point x="-504" y="2536"/>
      <point x="-505" y="2518"/>
      <point x="-508" y="2500" type="curve"/>
      <point x="-608" y="2551"/>
      <point x="-715" y="2583"/>
      <point x="-808" y="2583" type="curve" smooth="yes"/>
      <point x="-1013" y="2583"/>
      <point x="-1202" y="2457"/>
      <point x="-1202" y="2325" type="curve" smooth="yes"/>
      <point x="-1202" y="2239"/>
      <point x="-1141" y="2186"/>
      <point x="-1051" y="2186" type="curve" smooth="yes"/>
      <point x="-989" y="2186"/>
      <point x="-898" y="2199"/>
    </contour>
    <contour>
      <point x="-819" y="2329" type="curve" smooth="yes"/>
      <point x="-881" y="2329"/>
      <point x="-907" y="2320"/>
      <point x="-965" y="2320" type="curve" smooth="yes"/>
      <point x="-990" y="2320"/>
      <point x="-1005" y="2335"/>
      <point x="-1005" y="2349" type="curve"/>
      <point x="-1005" y="2407"/>
      <point x="-897" y="2453"/>
      <point x="-808" y="2453" type="curve"/>
      <point x="-676" y="2453"/>
      <point x="-497" y="2348"/>
      <point x="-429" y="2270" type="curve"/>
      <point x="-490" y="2290"/>
      <point x="-666" y="2329"/>
    </contour>
  </outline>
</glyph>
<glyph name="uni17BA.ms.narrowhigh" format="2">
  <outline>
    <contour>
      <point x="-12" y="1916" type="curve" smooth="yes"/>
      <point x="41" y="2005"/>
      <point x="81" y="2123"/>
      <point x="81" y="2261" type="curve" smooth="yes"/>
      <point x="81" y="2379"/>
      <point x="19" y="2481"/>
      <point x="-79" y="2481" type="curve" smooth="yes"/>
      <point x="-126" y="2481"/>
      <point x="-165" y="2447"/>
      <point x="-165" y="2403" type="curve" smooth="yes"/>
      <point x="-165" y="2361"/>
      <point x="-153" y="2341"/>
      <point x="-123" y="2313" type="curve" smooth="yes"/>
      <point x="-90" y="2282"/>
      <point x="-79" y="2250"/>
      <point x="-79" y="2173" type="curve" smooth="yes"/>
      <point x="-79" y="2156"/>
      <point x="-80" y="2137"/>
      <point x="-83" y="2117" type="curve"/>
      <point x="-121" y="2170"/>
      <point x="-163" y="2217"/>
      <point x="-208" y="2255" type="curve"/>
      <point x="-199" y="2292"/>
      <point x="-194" y="2330"/>
      <point x="-194" y="2369" type="curve" smooth="yes"/>
      <point x="-194" y="2467"/>
      <point x="-244" y="2559"/>
      <point x="-337" y="2559" type="curve" smooth="yes"/>
      <point x="-390" y="2559"/>
      <point x="-420" y="2519"/>
      <point x="-420" y="2470" type="curve" smooth="yes"/>
      <point x="-420" y="2444"/>
      <point x="-410" y="2425"/>
      <point x="-392" y="2401" type="curve" smooth="yes"/>
      <point x="-377" y="2381"/>
      <point x="-369" y="2363"/>
      <point x="-366" y="2339" type="curve"/>
      <point x="-397" y="2347"/>
      <point x="-429" y="2352"/>
      <point x="-463" y="2352" type="curve" smooth="yes"/>
      <point x="-668" y="2352"/>
      <point x="-768" y="2226"/>
      <point x="-768" y="2094" type="curve" smooth="yes"/>
      <point x="-768" y="2009"/>
      <point x="-707" y="1956"/>
      <point x="-618" y="1956" type="curve" smooth="yes"/>
      <point x="-556" y="1956"/>
      <point x="-534" y="1968"/>
      <point x="-474" y="1968" type="curve" smooth="yes"/>
      <point x="-288" y="1968"/>
      <point x="-233" y="1880"/>
      <point x="-87" y="1880" type="curve" smooth="yes"/>
      <point x="-50" y="1880"/>
      <point x="-25" y="1895"/>
    </contour>
    <contour>
      <point x="-445" y="2098" type="curve" smooth="yes"/>
      <point x="-487" y="2098"/>
      <point x="-496" y="2090"/>
      <point x="-535" y="2090" type="curve" smooth="yes"/>
      <point x="-559" y="2090"/>
      <point x="-580" y="2111"/>
      <point x="-580" y="2139" type="curve"/>
      <point x="-580" y="2196"/>
      <point x="-523" y="2222"/>
      <point x="-463" y="2222" type="curve"/>
      <point x="-360" y="2222"/>
      <point x="-281" y="2118"/>
      <point x="-223" y="2039" type="curve"/>
      <point x="-283" y="2071"/>
      <point x="-331" y="2098"/>
    </contour>
  </outline>
</glyph>
<glyph name="uni17C9.ms.narrowhigh" format="2">
  <outline>
    <contour>
      <point x="-683" y="2152" type="curve" smooth="yes"/>
      <point x="-683" y="2080"/>
      <point x="-610" y="2053"/>
      <point x="-575" y="2049" type="curve"/>
      <point x="-572" y="2046"/>
      <point x="-572" y="2027"/>
      <point x="-572" y="2020" type="curve"/>
      <point x="-572" y="1944"/>
      <point x="-621" y="1904"/>
      <point x="-621" y="1891" type="curve"/>
      <point x="-621" y="1884"/>
      <point x="-610" y="1880"/>
      <point x="-575" y="1880" type="curve"/>
      <point x="-493" y="1880"/>
      <point x="-417" y="1991"/>
      <point x="-417" y="2140" type="curve"/>
      <point x="-417" y="2203"/>
      <point x="-474" y="2257"/>
      <point x="-549" y="2257" type="curve"/>
      <point x="-636" y="2257"/>
      <point x="-683" y="2216"/>
    </contour>
    <contour>
      <point x="-301" y="2152" type="curve" smooth="yes"/>
      <point x="-301" y="2080"/>
      <point x="-228" y="2053"/>
      <point x="-192" y="2049" type="curve"/>
      <point x="-189" y="2046"/>
      <point x="-189" y="2027"/>
      <point x="-189" y="2020" type="curve"/>
      <point x="-189" y="1944"/>
      <point x="-239" y="1904"/>
      <point x="-239" y="1891" type="curve"/>
      <point x="-239" y="1884"/>
      <point x="-228" y="1880"/>
      <point x="-192" y="1880" type="curve"/>
      <point x="-111" y="1880"/>
      <point x="-35" y="1991"/>
      <point x="-35" y="2140" type="curve"/>
      <point x="-35" y="2203"/>
      <point x="-92" y="2257"/>
      <point x="-167" y="2257" type="curve"/>
      <point x="-253" y="2257"/>
      <point x="-301" y="2216"/>
    </contour>
  </outline>
</glyph>
<glyph name="uni17CD.ms.narrowhigh" format="2">
  <outline>
    <contour>
      <point x="-379" y="1880" type="curve" smooth="yes"/>
      <point x="-251" y="1880"/>
      <point x="-151" y="1972"/>
      <point x="-151" y="2046" type="curve"/>
      <point x="-151" y="2073"/>
      <point x="-189" y="2103"/>
      <point x="-240" y="2103" type="curve"/>
      <point x="-286" y="2103"/>
      <point x="-297" y="2084"/>
      <point x="-315" y="2054" type="curve"/>
      <point x="-334" y="2027"/>
      <point x="-357" y="2010"/>
      <point x="-379" y="2010" type="curve"/>
      <point x="-425" y="2010"/>
      <point x="-455" y="2050"/>
      <point x="-455" y="2106" type="curve"/>
      <point x="-455" y="2163"/>
      <point x="-402" y="2227"/>
      <point x="-323" y="2238" type="curve" smooth="yes"/>
      <point x="-161" y="2259"/>
      <point x="-1" y="2342"/>
      <point x="-1" y="2520" type="curve"/>
      <point x="-1" y="2593"/>
      <point x="-68" y="2672"/>
      <point x="-229" y="2689" type="curve"/>
      <point x="-193" y="2661"/>
      <point x="-169" y="2625"/>
      <point x="-169" y="2549" type="curve"/>
      <point x="-169" y="2463"/>
      <point x="-208" y="2380"/>
      <point x="-350" y="2366" type="curve" smooth="yes"/>
      <point x="-544" y="2346"/>
      <point x="-623" y="2203"/>
      <point x="-623" y="2106" type="curve"/>
      <point x="-623" y="1983"/>
      <point x="-515" y="1880"/>
    </contour>
  </outline>
</glyph>
<glyph name="uni17CE.ms.narrowvowel" format="2">
  <outline>
    <contour>
      <point x="-721" y="2286" type="line"/>
      <point x="-574" y="2286" type="line"/>
      <point x="-574" y="2140" type="line"/>
      <point x="-446" y="2140" type="line"/>
      <point x="-446" y="2286" type="line"/>
      <point x="-299" y="2286" type="line"/>
      <point x="-299" y="2414" type="line"/>
      <point x="-446" y="2414" type="line"/>
      <point x="-446" y="2560" type="line"/>
      <point x="-574" y="2560" type="line"/>
      <point x="-574" y="2414" type="line"/>
      <point x="-721" y="2414" type="line"/>
    </contour>
  </outline>
</glyph>
<glyph name="uni17D0.ms.high" format="2">
  <outline>
    <contour>
      <point x="-262" y="2230" type="curve" smooth="yes"/>
      <point x="-262" y="2305"/>
      <point x="-345" y="2327"/>
      <point x="-394" y="2327" type="curve"/>
      <point x="-494" y="2327"/>
      <point x="-562" y="2266"/>
      <point x="-562" y="2176" type="curve"/>
      <point x="-562" y="2041"/>
      <point x="-454" y="1880"/>
      <point x="-243" y="1880" type="curve"/>
      <point x="-11" y="1880"/>
      <point x="187" y="2030"/>
      <point x="187" y="2312" type="curve"/>
      <point x="187" y="2369"/>
      <point x="172" y="2428"/>
      <point x="128" y="2481" type="curve"/>
      <point x="86" y="2530"/>
      <point x="26" y="2556"/>
      <point x="-49" y="2556" type="curve"/>
      <point x="-86" y="2556"/>
      <point x="-124" y="2530"/>
      <point x="-124" y="2492" type="curve"/>
      <point x="-124" y="2458"/>
      <point x="-100" y="2417"/>
      <point x="-33" y="2383" type="curve"/>
      <point x="19" y="2353"/>
      <point x="29" y="2312"/>
      <point x="29" y="2262" type="curve"/>
      <point x="29" y="2195"/>
      <point x="4" y="2127"/>
      <point x="-35" y="2086" type="curve"/>
      <point x="-94" y="2023"/>
      <point x="-164" y="1992"/>
      <point x="-243" y="1992" type="curve"/>
      <point x="-319" y="1992"/>
      <point x="-384" y="2061"/>
      <point x="-384" y="2116" type="curve"/>
      <point x="-323" y="2123"/>
      <point x="-262" y="2170"/>
    </contour>
  </outline>
</glyph>
<glyph name="uni17D21785.low" format="2">
  <anchor x="-245" y="-1225" name="L"/>
  <anchor x="-245" y="-710" name="_L"/>
  <anchor x="-639" y="-710" name="_lm"/>
  <anchor x="-639" y="-1225" name="lm"/>
  <outline>
    <contour>
      <point x="-735" y="-1113" type="curve" smooth="yes"/>
      <point x="-777" y="-1113"/>
      <point x="-864" y="-1105"/>
      <point x="-864" y="-1065" type="curve" smooth="yes"/>
      <point x="-864" y="-1025"/>
      <point x="-732" y="-999"/>
      <point x="-732" y="-891" type="curve"/>
      <point x="-732" y="-830"/>
      <point x="-808" y="-790"/>
      <point x="-876" y="-790" type="curve"/>
      <point x="-948" y="-790"/>
      <point x="-1014" y="-826"/>
      <point x="-1014" y="-887" type="curve"/>
      <point x="-1014" y="-929"/>
      <point x="-976" y="-970"/>
      <point x="-912" y="-976" type="curve"/>
      <point x="-912" y="-1004"/>
      <point x="-1032" y="-1036"/>
      <point x="-1032" y="-1101" type="curve"/>
      <point x="-1032" y="-1167"/>
      <point x="-971" y="-1225"/>
      <point x="-746" y="-1225" type="curve"/>
      <point x="-537" y="-1225"/>
      <point x="-414" y="-1170"/>
      <point x="-372" y="-1133" type="curve"/>
      <point x="-339" y="-1152"/>
      <point x="-290" y="-1165"/>
      <point x="-222" y="-1165" type="curve"/>
      <point x="-166" y="-1165"/>
      <point x="-128" y="-1144"/>
      <point x="-117" y="-1133" type="curve"/>
      <point x="-174" y="-1122"/>
      <point x="-264" y="-1068"/>
      <point x="-304" y="-1038" type="curve"/>
      <point x="-271" y="-1004"/>
      <point x="-245" y="-969"/>
      <point x="-245" y="-926" type="curve"/>
      <point x="-245" y="-845"/>
      <point x="-314" y="-790"/>
      <point x="-426" y="-790" type="curve"/>
      <point x="-526" y="-790"/>
      <point x="-601" y="-849"/>
      <point x="-601" y="-922" type="curve" smooth="yes"/>
      <point x="-601" y="-991"/>
      <point x="-556" y="-1029"/>
      <point x="-496" y="-1061" type="curve"/>
      <point x="-527" y="-1100"/>
      <point x="-627" y="-1113"/>
    </contour>
    <contour>
      <point x="-459" y="-931" type="curve" smooth="yes"/>
      <point x="-459" y="-902"/>
      <point x="-444" y="-887"/>
      <point x="-424" y="-887" type="curve"/>
      <point x="-404" y="-887"/>
      <point x="-387" y="-902"/>
      <point x="-387" y="-931" type="curve"/>
      <point x="-387" y="-954"/>
      <point x="-407" y="-979"/>
      <point x="-422" y="-992" type="curve"/>
      <point x="-447" y="-971"/>
      <point x="-459" y="-954"/>
    </contour>
  </outline>
</glyph>
<glyph name="uni17D21793" format="2">
  <anchor x="-245" y="-710" name="L"/>
  <anchor x="-245" y="0" name="_L"/>
  <anchor x="-653" y="0" name="_lm"/>
  <anchor x="-653" y="-710" name="lm"/>
  <outline>
    <contour>
      <point x="-1182" y="-387" type="curve" smooth="yes"/>
      <point x="-1182" y="-538"/>
      <point x="-1080" y="-619"/>
      <point x="-922" y="-619" type="curve"/>
      <point x="-843" y="-619"/>
      <point x="-779" y="-591"/>
      <point x="-718" y="-560" type="curve" smooth="yes"/>
      <point x="-658" y="-530"/>
      <point x="-601" y="-508"/>
      <point x="-546" y="-502" type="curve"/>
      <point x="-546" y="-627"/>
      <point x="-473" y="-710"/>
      <point x="-356" y="-710" type="curve"/>
      <point x="-240" y="-710"/>
      <point x="-167" y="-645"/>
      <point x="-167" y="-541" type="curve"/>
      <point x="-167" y="-440"/>
      <point x="-250" y="-376"/>
      <point x="-378" y="-372" type="curve"/>
      <point x="-378" y="-312" type="line"/>
      <point x="-167" y="-312" type="line"/>
      <point x="-167" y="-182" type="line"/>
      <point x="-378" y="-182" type="line"/>
      <point x="-378" y="-80" type="line"/>
      <point x="-546" y="-80" type="line"/>
      <point x="-546" y="-182" type="line"/>
      <point x="-922" y="-182" type="line"/>
      <point x="-1063" y="-182"/>
      <point x="-1182" y="-255"/>
    </contour>
    <contour>
      <point x="-922" y="-489" type="curve" smooth="yes"/>
      <point x="-973" y="-489"/>
      <point x="-1014" y="-451"/>
      <point x="-1014" y="-387" type="curve"/>
      <point x="-1014" y="-331"/>
      <point x="-973" y="-312"/>
      <point x="-922" y="-312" type="curve"/>
      <point x="-546" y="-312" type="line"/>
      <point x="-546" y="-372" type="line"/>
      <point x="-593" y="-372"/>
      <point x="-662" y="-406"/>
      <point x="-734" y="-436" type="curve" smooth="yes"/>
      <point x="-805" y="-466"/>
      <point x="-877" y="-489"/>
    </contour>
    <contour>
      <point x="-378" y="-499" type="line"/>
      <point x="-352" y="-499" type="line" smooth="yes"/>
      <point x="-326" y="-499"/>
      <point x="-304" y="-518"/>
      <point x="-304" y="-545" type="curve" smooth="yes"/>
      <point x="-304" y="-575"/>
      <point x="-320" y="-587"/>
      <point x="-340" y="-587" type="curve" smooth="yes"/>
      <point x="-361" y="-587"/>
      <point x="-378" y="-569"/>
      <point x="-378" y="-535" type="curve" smooth="yes"/>
    </contour>
  </outline>
  <guideline angle="90" x="-653" y="0"/>
</glyph>
<glyph name="uni17D21799" format="2">
  <advance width="728"/>
  <anchor x="483" y="-598" name="L"/>
  <anchor x="483" y="1440" name="U"/>
  <anchor x="389" y="1440" name="um"/>
  <outline>
    <contour>
      <point x="483" y="980" type="line"/>
      <point x="483" y="1024"/>
      <point x="420" y="1054"/>
      <point x="341" y="1092" type="curve" smooth="yes"/>
      <point x="293" y="1115"/>
      <point x="245" y="1138"/>
      <point x="245" y="1193" type="curve" smooth="yes"/>
      <point x="245" y="1242"/>
      <point x="273" y="1282"/>
      <point x="309" y="1282" type="curve" smooth="yes"/>
      <point x="320" y="1282"/>
      <point x="341" y="1276"/>
      <point x="371" y="1253" type="curve" smooth="yes"/>
      <point x="399" y="1231"/>
      <point x="438" y="1204"/>
      <point x="502" y="1204" type="curve" smooth="yes"/>
      <point x="599" y="1204"/>
      <point x="652" y="1257"/>
      <point x="656" y="1374" type="curve"/>
      <point x="633" y="1354"/>
      <point x="610" y="1346"/>
      <point x="595" y="1346" type="curve" smooth="yes"/>
      <point x="554" y="1346"/>
      <point x="513" y="1370"/>
      <point x="475" y="1396" type="curve" smooth="yes"/>
      <point x="441" y="1418"/>
      <point x="407" y="1440"/>
      <point x="359" y="1440" type="curve" smooth="yes"/>
      <point x="245" y="1440"/>
      <point x="122" y="1306"/>
      <point x="122" y="1189" type="curve" smooth="yes"/>
      <point x="122" y="1118"/>
      <point x="145" y="1063"/>
      <point x="227" y="1016" type="curve"/>
      <point x="262" y="1002"/>
      <point x="295" y="980"/>
      <point x="295" y="923" type="curve" smooth="yes"/>
      <point x="295" y="-396" type="line" smooth="yes"/>
      <point x="295" y="-452"/>
      <point x="154" y="-486"/>
      <point x="34" y="-486" type="curve" smooth="yes"/>
      <point x="-86" y="-486"/>
      <point x="-245" y="-452"/>
      <point x="-245" y="-396" type="curve" smooth="yes"/>
      <point x="-245" y="-336" type="line"/>
      <point x="-188" y="-329"/>
      <point x="-152" y="-289"/>
      <point x="-152" y="-257" type="curve" smooth="yes"/>
      <point x="-152" y="-186"/>
      <point x="-188" y="-161"/>
      <point x="-260" y="-150" type="curve"/>
      <point x="-331" y="-150"/>
      <point x="-421" y="-167"/>
      <point x="-433" y="-229" type="curve"/>
      <point x="-433" y="-411" type="line" smooth="yes"/>
      <point x="-433" y="-511"/>
      <point x="-206" y="-598"/>
      <point x="34" y="-598" type="curve" smooth="yes"/>
      <point x="274" y="-598"/>
      <point x="483" y="-511"/>
      <point x="483" y="-411" type="curve" smooth="yes"/>
    </contour>
  </outline>
</glyph>
<glyph name="uni17D2179A" format="2">
  <advance width="728"/>
  <outline>
    <contour>
      <point x="295" y="-411" type="line"/>
      <point x="295" y="-511"/>
      <point x="513" y="-598"/>
      <point x="753" y="-598" type="curve" smooth="yes"/>
      <point x="993" y="-598"/>
      <point x="1211" y="-511"/>
      <point x="1211" y="-411" type="curve" smooth="yes"/>
      <point x="1211" y="-150" type="line"/>
      <point x="1023" y="-150" type="line"/>
      <point x="1023" y="-396" type="line" smooth="yes"/>
      <point x="1023" y="-452"/>
      <point x="873" y="-486"/>
      <point x="753" y="-486" type="curve" smooth="yes"/>
      <point x="633" y="-486"/>
      <point x="483" y="-452"/>
      <point x="483" y="-396" type="curve" smooth="yes"/>
      <point x="483" y="980" type="line" smooth="yes"/>
      <point x="483" y="1024"/>
      <point x="420" y="1054"/>
      <point x="341" y="1092" type="curve" smooth="yes"/>
      <point x="293" y="1115"/>
      <point x="245" y="1138"/>
      <point x="245" y="1193" type="curve" smooth="yes"/>
      <point x="245" y="1242"/>
      <point x="273" y="1282"/>
      <point x="309" y="1282" type="curve" smooth="yes"/>
      <point x="320" y="1282"/>
      <point x="341" y="1276"/>
      <point x="371" y="1253" type="curve" smooth="yes"/>
      <point x="399" y="1231"/>
      <point x="438" y="1204"/>
      <point x="502" y="1204" type="curve" smooth="yes"/>
      <point x="599" y="1204"/>
      <point x="652" y="1257"/>
      <point x="656" y="1374" type="curve"/>
      <point x="633" y="1354"/>
      <point x="610" y="1346"/>
      <point x="595" y="1346" type="curve" smooth="yes"/>
      <point x="554" y="1346"/>
      <point x="513" y="1370"/>
      <point x="475" y="1396" type="curve" smooth="yes"/>
      <point x="441" y="1418"/>
      <point x="407" y="1440"/>
      <point x="359" y="1440" type="curve" smooth="yes"/>
      <point x="245" y="1440"/>
      <point x="122" y="1306"/>
      <point x="122" y="1189" type="curve" smooth="yes"/>
      <point x="122" y="1118"/>
      <point x="145" y="1063"/>
      <point x="227" y="1016" type="curve"/>
      <point x="262" y="1002"/>
      <point x="295" y="980"/>
      <point x="295" y="923" type="curve" smooth="yes"/>
    </contour>
  </outline>
</glyph>
<glyph name="uni17DD.ms.narrowhigh" format="2">
  <outline>
    <contour>
      <point x="-19" y="1880" type="curve"/>
      <point x="-30" y="2184"/>
      <point x="-142" y="2357"/>
      <point x="-373" y="2357" type="curve" smooth="yes"/>
      <point x="-566" y="2357"/>
      <point x="-716" y="2221"/>
      <point x="-716" y="2052" type="curve" smooth="yes"/>
      <point x="-716" y="1978"/>
      <point x="-673" y="1916"/>
      <point x="-596" y="1916" type="curve" smooth="yes"/>
      <point x="-534" y="1916"/>
      <point x="-474" y="1963"/>
      <point x="-474" y="2025" type="curve" smooth="yes"/>
      <point x="-474" y="2066"/>
      <point x="-488" y="2103"/>
      <point x="-528" y="2121" type="curve"/>
      <point x="-488" y="2169"/>
      <point x="-439" y="2207"/>
      <point x="-348" y="2207" type="curve" smooth="yes"/>
      <point x="-184" y="2207"/>
      <point x="-61" y="2025"/>
    </contour>
  </outline>
</glyph>
<glyph name="uni200B.narrowattmptlow" format="2">
  <anchor x="-245" y="-1225" name="L"/>
  <outline>
    <contour>
      <point x="-487" y="154" type="line"/>
      <point x="-501" y="154" type="line"/>
      <point x="-501" y="139" type="line"/>
      <point x="-487" y="139" type="line"/>
    </contour>
  </outline>
</glyph>
<glyph name="uni200B.showinv" format="2">
  <outline>
    <contour>
      <point x="0" y="1788" type="line"/>
      <point x="0" y="-369" type="line"/>
      <point x="110" y="-369" type="line"/>
      <point x="110" y="1788" type="line"/>
    </contour>
  </outline>
</glyph>
